<?xml version="1.0" encoding="UTF-8"?>
<svg xmlns="http://www.w3.org/2000/svg" xmlns:xlink="http://www.w3.org/1999/xlink" width="854" height="480" viewBox="0 0 854 480">
<defs>
<g>
<g id="glyph-0-0">
<path d="M 1.984375 -0.242188 C 2.324219 -0.242188 2.609375 -0.308594 2.839844 -0.441406 C 3.070312 -0.574219 3.183594 -0.824219 3.183594 -1.203125 C 3.183594 -1.574219 3.050781 -1.828125 2.78125 -1.964844 C 2.511719 -2.101562 2.167969 -2.171875 1.75 -2.171875 C 1.648438 -2.171875 1.585938 -2.171875 1.558594 -2.171875 C 1.53125 -2.171875 1.488281 -2.171875 1.433594 -2.175781 L 1.433594 -0.515625 C 1.433594 -0.398438 1.464844 -0.324219 1.53125 -0.292969 C 1.59375 -0.257812 1.746094 -0.242188 1.984375 -0.242188 Z M 0.113281 -0.121094 C 0.382812 -0.136719 0.558594 -0.175781 0.636719 -0.246094 C 0.714844 -0.3125 0.753906 -0.472656 0.753906 -0.722656 L 0.753906 -3.6875 C 0.753906 -3.933594 0.714844 -4.089844 0.636719 -4.160156 C 0.558594 -4.230469 0.382812 -4.273438 0.113281 -4.289062 L 0.113281 -4.410156 L 1.984375 -4.410156 C 2.515625 -4.410156 2.941406 -4.324219 3.253906 -4.152344 C 3.566406 -3.980469 3.722656 -3.6875 3.722656 -3.269531 C 3.722656 -2.953125 3.613281 -2.714844 3.394531 -2.550781 C 3.269531 -2.457031 3.085938 -2.382812 2.839844 -2.320312 C 3.144531 -2.246094 3.40625 -2.125 3.625 -1.953125 C 3.839844 -1.78125 3.949219 -1.539062 3.949219 -1.226562 C 3.949219 -0.707031 3.707031 -0.347656 3.226562 -0.152344 C 2.972656 -0.0507812 2.660156 0 2.289062 0 L 0.113281 0 Z M 2.066406 -2.4375 C 2.289062 -2.441406 2.476562 -2.476562 2.625 -2.546875 C 2.90625 -2.675781 3.046875 -2.910156 3.046875 -3.246094 C 3.046875 -3.644531 2.882812 -3.910156 2.558594 -4.050781 C 2.378906 -4.125 2.105469 -4.164062 1.738281 -4.164062 C 1.597656 -4.164062 1.515625 -4.152344 1.480469 -4.128906 C 1.449219 -4.105469 1.433594 -4.039062 1.433594 -3.933594 L 1.433594 -2.429688 Z "/>
</g>
<g id="glyph-0-1">
<rect x="0" y="0" width="0" height="0" mask="url(#mask-0)"/>
</g>
<g id="glyph-0-2">
<path d="M 3.566406 -1.242188 L 3.566406 -0.785156 L 0.199219 -0.785156 L 0.199219 -1.242188 Z M 3.566406 -2.585938 L 3.566406 -2.128906 L 0.199219 -2.128906 L 0.199219 -2.585938 Z "/>
</g>
<g id="glyph-0-3">
<path d="M 1.972656 -4.472656 C 1.980469 -4.460938 1.984375 -4.453125 1.988281 -4.449219 C 1.988281 -4.441406 1.988281 -4.429688 1.988281 -4.410156 L 1.988281 -0.492188 C 1.988281 -0.324219 2.035156 -0.21875 2.121094 -0.171875 C 2.210938 -0.125 2.378906 -0.101562 2.621094 -0.0898438 L 2.621094 0 L 0.785156 0 L 0.785156 -0.0976562 C 1.046875 -0.109375 1.21875 -0.148438 1.300781 -0.207031 C 1.378906 -0.265625 1.417969 -0.390625 1.417969 -0.585938 L 1.417969 -3.601562 C 1.417969 -3.703125 1.40625 -3.785156 1.378906 -3.839844 C 1.355469 -3.894531 1.296875 -3.917969 1.210938 -3.917969 C 1.15625 -3.917969 1.082031 -3.902344 0.992188 -3.871094 C 0.902344 -3.839844 0.816406 -3.808594 0.738281 -3.773438 L 0.738281 -3.863281 L 1.933594 -4.472656 Z "/>
</g>
<g id="glyph-0-4">
<path d="M 1.664062 -1.867188 C 1.8125 -1.867188 1.964844 -1.90625 2.121094 -1.988281 C 2.277344 -2.070312 2.367188 -2.140625 2.390625 -2.199219 C 2.398438 -2.21875 2.40625 -2.300781 2.414062 -2.441406 C 2.417969 -2.582031 2.421875 -2.691406 2.421875 -2.78125 C 2.421875 -3.230469 2.347656 -3.597656 2.195312 -3.878906 C 2.042969 -4.160156 1.820312 -4.304688 1.527344 -4.304688 C 1.3125 -4.304688 1.140625 -4.207031 1.011719 -4.015625 C 0.878906 -3.820312 0.8125 -3.53125 0.8125 -3.148438 C 0.8125 -2.832031 0.875 -2.539062 0.996094 -2.269531 C 1.121094 -2 1.34375 -1.867188 1.664062 -1.867188 Z M 1.574219 -4.488281 C 2.050781 -4.488281 2.417969 -4.296875 2.679688 -3.917969 C 2.941406 -3.535156 3.070312 -3.113281 3.070312 -2.644531 C 3.070312 -2.3125 3.007812 -1.976562 2.882812 -1.636719 C 2.761719 -1.296875 2.582031 -0.992188 2.34375 -0.726562 C 2.066406 -0.417969 1.71875 -0.1875 1.296875 -0.0390625 C 1.058594 0.046875 0.761719 0.109375 0.402344 0.15625 L 0.367188 0.0273438 C 0.59375 -0.0273438 0.78125 -0.0820312 0.929688 -0.140625 C 1.199219 -0.246094 1.417969 -0.375 1.578125 -0.53125 C 1.808594 -0.75 1.992188 -0.996094 2.128906 -1.265625 C 2.269531 -1.535156 2.355469 -1.761719 2.390625 -1.945312 L 2.277344 -1.859375 C 2.117188 -1.738281 1.925781 -1.652344 1.710938 -1.609375 C 1.597656 -1.582031 1.492188 -1.570312 1.398438 -1.570312 C 1.03125 -1.570312 0.738281 -1.699219 0.523438 -1.960938 C 0.308594 -2.222656 0.199219 -2.535156 0.199219 -2.898438 C 0.199219 -3.359375 0.328125 -3.742188 0.585938 -4.039062 C 0.84375 -4.339844 1.171875 -4.488281 1.574219 -4.488281 Z "/>
</g>
</g>
<image id="source-6" x="0" y="0" width="0" height="0"/>
<mask id="mask-0">
<use xlink:href="#source-6"/>
</mask>
</defs>
<g fill="rgb(100%, 100%, 100%)" fill-opacity="1">
<use xlink:href="#glyph-0-0" x="30" y="25"/>
<use xlink:href="#glyph-0-1" x="34" y="25"/>
<use xlink:href="#glyph-0-2" x="36" y="25"/>
<use xlink:href="#glyph-0-1" x="40" y="25"/>
<use xlink:href="#glyph-0-3" x="42" y="25"/>
<use xlink:href="#glyph-0-4" x="45" y="25"/>
</g>
</svg>
