<?xml version="1.0" encoding="UTF-8"?>
<svg xmlns="http://www.w3.org/2000/svg" xmlns:xlink="http://www.w3.org/1999/xlink" width="854" height="480" viewBox="0 0 854 480">
<defs>
<g>
<g id="glyph-0-0">
<path d="M 5.769531 -6.398438 C 5.769531 -7.214844 5.417969 -7.777344 4.714844 -8.078125 C 4.335938 -8.242188 3.859375 -8.328125 3.28125 -8.328125 C 3.007812 -8.328125 2.839844 -8.300781 2.777344 -8.246094 C 2.714844 -8.191406 2.683594 -8.070312 2.683594 -7.882812 L 2.683594 -4.40625 C 2.921875 -4.386719 3.078125 -4.371094 3.152344 -4.367188 C 3.226562 -4.363281 3.296875 -4.363281 3.367188 -4.363281 C 3.976562 -4.363281 4.460938 -4.449219 4.8125 -4.621094 C 5.449219 -4.9375 5.769531 -5.53125 5.769531 -6.398438 Z M 0.214844 -0.242188 C 0.722656 -0.289062 1.039062 -0.390625 1.164062 -0.542969 C 1.289062 -0.699219 1.355469 -1.050781 1.355469 -1.601562 L 1.355469 -7.375 C 1.355469 -7.839844 1.285156 -8.148438 1.140625 -8.292969 C 1 -8.441406 0.691406 -8.535156 0.214844 -8.574219 L 0.214844 -8.820312 L 3.730469 -8.820312 C 4.859375 -8.820312 5.722656 -8.601562 6.320312 -8.164062 C 6.921875 -7.726562 7.21875 -7.148438 7.21875 -6.433594 C 7.21875 -5.527344 6.886719 -4.867188 6.222656 -4.460938 C 5.558594 -4.050781 4.730469 -3.847656 3.730469 -3.847656 C 3.585938 -3.847656 3.402344 -3.851562 3.179688 -3.855469 C 2.957031 -3.863281 2.789062 -3.867188 2.683594 -3.867188 L 2.683594 -1.445312 C 2.683594 -0.941406 2.757812 -0.625 2.914062 -0.496094 C 3.066406 -0.363281 3.410156 -0.28125 3.945312 -0.242188 L 3.945312 0 L 0.214844 0 Z "/>
</g>
<g id="glyph-0-1">
<path d="M 0.273438 -0.183594 C 0.675781 -0.222656 0.949219 -0.300781 1.09375 -0.425781 C 1.238281 -0.550781 1.308594 -0.792969 1.308594 -1.152344 L 1.308594 -7.511719 C 1.308594 -7.800781 1.285156 -7.996094 1.238281 -8.105469 C 1.152344 -8.289062 0.972656 -8.378906 0.710938 -8.378906 C 0.648438 -8.378906 0.582031 -8.371094 0.511719 -8.359375 C 0.441406 -8.347656 0.347656 -8.328125 0.242188 -8.300781 L 0.242188 -8.515625 C 0.828125 -8.671875 1.53125 -8.878906 2.355469 -9.140625 C 2.386719 -9.140625 2.40625 -9.128906 2.410156 -9.101562 C 2.417969 -9.074219 2.421875 -9.019531 2.421875 -8.933594 L 2.421875 -1.125 C 2.421875 -0.75 2.488281 -0.503906 2.617188 -0.394531 C 2.746094 -0.285156 3.015625 -0.210938 3.425781 -0.183594 L 3.425781 0 L 0.273438 0 Z "/>
</g>
<g id="glyph-0-2">
<path d="M 3.820312 -3.605469 C 3.320312 -3.441406 2.910156 -3.257812 2.585938 -3.058594 C 1.960938 -2.671875 1.648438 -2.234375 1.648438 -1.746094 C 1.648438 -1.351562 1.777344 -1.058594 2.039062 -0.871094 C 2.207031 -0.75 2.394531 -0.691406 2.605469 -0.691406 C 2.890625 -0.691406 3.164062 -0.769531 3.425781 -0.929688 C 3.691406 -1.089844 3.820312 -1.296875 3.820312 -1.542969 Z M 0.488281 -1.296875 C 0.488281 -1.925781 0.804688 -2.449219 1.433594 -2.871094 C 1.832031 -3.132812 2.628906 -3.484375 3.820312 -3.933594 L 3.820312 -4.484375 C 3.820312 -4.929688 3.777344 -5.238281 3.691406 -5.410156 C 3.542969 -5.699219 3.238281 -5.847656 2.773438 -5.847656 C 2.550781 -5.847656 2.339844 -5.789062 2.140625 -5.675781 C 1.941406 -5.558594 1.84375 -5.398438 1.84375 -5.195312 C 1.84375 -5.144531 1.851562 -5.054688 1.875 -4.929688 C 1.898438 -4.808594 1.90625 -4.730469 1.90625 -4.695312 C 1.90625 -4.453125 1.828125 -4.28125 1.667969 -4.1875 C 1.574219 -4.128906 1.46875 -4.101562 1.339844 -4.101562 C 1.144531 -4.101562 0.996094 -4.164062 0.890625 -4.292969 C 0.789062 -4.421875 0.734375 -4.5625 0.734375 -4.71875 C 0.734375 -5.023438 0.921875 -5.339844 1.296875 -5.671875 C 1.671875 -6.003906 2.222656 -6.171875 2.949219 -6.171875 C 3.792969 -6.171875 4.363281 -5.898438 4.660156 -5.351562 C 4.820312 -5.050781 4.902344 -4.617188 4.902344 -4.042969 L 4.902344 -1.433594 C 4.902344 -1.179688 4.917969 -1.007812 4.953125 -0.910156 C 5.011719 -0.742188 5.128906 -0.65625 5.304688 -0.65625 C 5.40625 -0.65625 5.488281 -0.671875 5.554688 -0.703125 C 5.617188 -0.734375 5.730469 -0.808594 5.890625 -0.925781 L 5.890625 -0.585938 C 5.753906 -0.417969 5.601562 -0.277344 5.441406 -0.167969 C 5.199219 -0.00390625 4.953125 0.078125 4.699219 0.078125 C 4.40625 0.078125 4.191406 -0.015625 4.058594 -0.207031 C 3.925781 -0.398438 3.855469 -0.628906 3.839844 -0.890625 C 3.511719 -0.605469 3.230469 -0.394531 2.996094 -0.253906 C 2.601562 -0.0195312 2.222656 0.0976562 1.867188 0.0976562 C 1.496094 0.0976562 1.171875 -0.0351562 0.898438 -0.296875 C 0.625 -0.558594 0.488281 -0.890625 0.488281 -1.296875 Z "/>
</g>
<g id="glyph-0-3">
<path d="M 0.242188 -0.183594 C 0.550781 -0.222656 0.765625 -0.296875 0.886719 -0.414062 C 1.011719 -0.527344 1.074219 -0.785156 1.074219 -1.183594 L 1.074219 -4.484375 C 1.074219 -4.761719 1.046875 -4.957031 0.996094 -5.070312 C 0.914062 -5.234375 0.746094 -5.320312 0.488281 -5.320312 C 0.449219 -5.320312 0.410156 -5.316406 0.367188 -5.3125 C 0.328125 -5.308594 0.277344 -5.300781 0.214844 -5.292969 L 0.214844 -5.519531 C 0.394531 -5.574219 0.8125 -5.707031 1.476562 -5.925781 L 2.089844 -6.125 C 2.121094 -6.125 2.136719 -6.117188 2.144531 -6.09375 C 2.152344 -6.070312 2.15625 -6.042969 2.15625 -6.003906 L 2.15625 -5.046875 C 2.554688 -5.417969 2.867188 -5.675781 3.09375 -5.8125 C 3.429688 -6.027344 3.78125 -6.132812 4.148438 -6.132812 C 4.441406 -6.132812 4.710938 -6.046875 4.953125 -5.878906 C 5.421875 -5.550781 5.65625 -4.960938 5.65625 -4.113281 L 5.65625 -1.074219 C 5.65625 -0.761719 5.71875 -0.535156 5.847656 -0.398438 C 5.972656 -0.257812 6.183594 -0.1875 6.476562 -0.183594 L 6.476562 0 L 3.699219 0 L 3.699219 -0.183594 C 4.015625 -0.226562 4.234375 -0.3125 4.363281 -0.445312 C 4.488281 -0.578125 4.550781 -0.867188 4.550781 -1.308594 L 4.550781 -4.089844 C 4.550781 -4.460938 4.480469 -4.769531 4.34375 -5.015625 C 4.203125 -5.261719 3.949219 -5.382812 3.574219 -5.382812 C 3.316406 -5.382812 3.058594 -5.296875 2.792969 -5.125 C 2.644531 -5.023438 2.453125 -4.859375 2.21875 -4.628906 L 2.21875 -0.984375 C 2.21875 -0.671875 2.289062 -0.460938 2.429688 -0.355469 C 2.566406 -0.25 2.785156 -0.191406 3.085938 -0.183594 L 3.085938 0 L 0.242188 0 Z "/>
</g>
<g id="glyph-0-4">
<rect x="0" y="0" width="0" height="0" mask="url(#mask-0)"/>
</g>
<g id="glyph-0-5">
<path d="M 3.964844 -0.480469 C 4.644531 -0.480469 5.21875 -0.613281 5.675781 -0.878906 C 6.136719 -1.144531 6.367188 -1.652344 6.367188 -2.402344 C 6.367188 -3.148438 6.097656 -3.660156 5.558594 -3.933594 C 5.019531 -4.207031 4.335938 -4.34375 3.503906 -4.34375 C 3.300781 -4.34375 3.167969 -4.34375 3.113281 -4.34375 C 3.058594 -4.34375 2.976562 -4.34375 2.863281 -4.347656 L 2.863281 -1.027344 C 2.863281 -0.796875 2.929688 -0.648438 3.058594 -0.582031 C 3.191406 -0.515625 3.492188 -0.480469 3.964844 -0.480469 Z M 0.226562 -0.242188 C 0.765625 -0.273438 1.113281 -0.355469 1.273438 -0.492188 C 1.429688 -0.628906 1.511719 -0.945312 1.511719 -1.445312 L 1.511719 -7.375 C 1.511719 -7.867188 1.429688 -8.183594 1.273438 -8.324219 C 1.113281 -8.464844 0.765625 -8.546875 0.226562 -8.574219 L 0.226562 -8.820312 L 3.964844 -8.820312 C 5.03125 -8.820312 5.878906 -8.648438 6.507812 -8.308594 C 7.132812 -7.964844 7.449219 -7.375 7.449219 -6.535156 C 7.449219 -5.90625 7.230469 -5.429688 6.789062 -5.105469 C 6.542969 -4.917969 6.171875 -4.761719 5.675781 -4.640625 C 6.289062 -4.492188 6.8125 -4.246094 7.246094 -3.902344 C 7.679688 -3.558594 7.898438 -3.074219 7.898438 -2.453125 C 7.898438 -1.414062 7.414062 -0.695312 6.453125 -0.304688 C 5.945312 -0.101562 5.320312 0 4.578125 0 L 0.226562 0 Z M 4.132812 -4.875 C 4.582031 -4.882812 4.953125 -4.957031 5.246094 -5.089844 C 5.8125 -5.351562 6.09375 -5.816406 6.09375 -6.492188 C 6.09375 -7.285156 5.769531 -7.820312 5.117188 -8.097656 C 4.757812 -8.25 4.210938 -8.328125 3.476562 -8.328125 C 3.199219 -8.328125 3.027344 -8.304688 2.960938 -8.253906 C 2.898438 -8.207031 2.863281 -8.078125 2.863281 -7.863281 L 2.863281 -4.855469 Z "/>
</g>
<g id="glyph-0-6">
<path d="M 0.613281 -3.347656 C 0.613281 -4.855469 1.0625 -6.183594 1.964844 -7.324219 C 2.519531 -8.023438 3.175781 -8.585938 3.933594 -9.011719 L 4.054688 -8.796875 C 3.355469 -8.242188 2.859375 -7.699219 2.558594 -7.175781 C 2.035156 -6.257812 1.769531 -5.039062 1.769531 -3.515625 C 1.769531 -2.386719 1.871094 -1.457031 2.070312 -0.722656 C 2.421875 0.5625 3.082031 1.523438 4.054688 2.160156 L 3.886719 2.375 C 3.351562 2.121094 2.777344 1.617188 2.15625 0.871094 C 1.125 -0.363281 0.613281 -1.769531 0.613281 -3.347656 Z "/>
</g>
<g id="glyph-0-7">
<path d="M 4.933594 -8.976562 C 5.417969 -8.976562 5.910156 -8.90625 6.417969 -8.761719 C 6.925781 -8.621094 7.210938 -8.546875 7.273438 -8.546875 C 7.398438 -8.546875 7.515625 -8.582031 7.628906 -8.652344 C 7.742188 -8.722656 7.820312 -8.832031 7.863281 -8.976562 L 8.144531 -8.976562 L 8.269531 -5.984375 L 7.960938 -5.984375 C 7.785156 -6.578125 7.550781 -7.058594 7.265625 -7.421875 C 6.71875 -8.109375 5.984375 -8.449219 5.058594 -8.449219 C 4.125 -8.449219 3.363281 -8.082031 2.769531 -7.34375 C 2.175781 -6.605469 1.882812 -5.589844 1.882812 -4.296875 C 1.882812 -3.109375 2.191406 -2.15625 2.816406 -1.449219 C 3.4375 -0.738281 4.226562 -0.382812 5.183594 -0.382812 C 5.871094 -0.382812 6.507812 -0.550781 7.089844 -0.878906 C 7.425781 -1.066406 7.789062 -1.347656 8.191406 -1.726562 L 8.4375 -1.476562 C 8.140625 -1.105469 7.777344 -0.777344 7.335938 -0.496094 C 6.589844 -0.0195312 5.78125 0.222656 4.910156 0.222656 C 3.476562 0.222656 2.339844 -0.238281 1.496094 -1.152344 C 0.71875 -2 0.332031 -3.054688 0.332031 -4.324219 C 0.332031 -5.621094 0.742188 -6.710938 1.5625 -7.589844 C 2.425781 -8.515625 3.550781 -8.976562 4.933594 -8.976562 Z "/>
</g>
<g id="glyph-0-8">
<path d="M 0.148438 -0.242188 C 0.699219 -0.296875 1.054688 -0.421875 1.210938 -0.613281 C 1.367188 -0.808594 1.445312 -1.257812 1.445312 -1.960938 L 1.445312 -7.839844 L 1.261719 -8.054688 C 1.066406 -8.285156 0.902344 -8.425781 0.765625 -8.480469 C 0.628906 -8.535156 0.421875 -8.566406 0.148438 -8.574219 L 0.148438 -8.820312 L 2.433594 -8.820312 L 7.570312 -2.402344 L 7.570312 -6.863281 C 7.570312 -7.597656 7.464844 -8.074219 7.246094 -8.292969 C 7.101562 -8.4375 6.785156 -8.53125 6.296875 -8.574219 L 6.296875 -8.820312 L 9.425781 -8.820312 L 9.425781 -8.574219 C 8.917969 -8.523438 8.582031 -8.398438 8.410156 -8.203125 C 8.242188 -8.007812 8.15625 -7.5625 8.15625 -6.863281 L 8.15625 0.15625 L 7.929688 0.15625 L 2.03125 -7.15625 L 2.03125 -1.960938 C 2.03125 -1.230469 2.136719 -0.753906 2.351562 -0.535156 C 2.488281 -0.390625 2.800781 -0.292969 3.28125 -0.242188 L 3.28125 0 L 0.148438 0 Z "/>
</g>
<g id="glyph-0-9">
<path d="M 3.796875 -3.28125 C 3.796875 -2.632812 3.710938 -2.023438 3.542969 -1.445312 C 3.371094 -0.867188 3.125 -0.324219 2.800781 0.1875 C 2.457031 0.734375 2 1.246094 1.425781 1.71875 C 1.046875 2.03125 0.730469 2.25 0.476562 2.375 L 0.351562 2.160156 C 1.019531 1.652344 1.507812 1.136719 1.816406 0.605469 C 2.363281 -0.332031 2.636719 -1.570312 2.636719 -3.113281 C 2.636719 -4.359375 2.511719 -5.375 2.257812 -6.164062 C 1.90625 -7.28125 1.273438 -8.15625 0.351562 -8.796875 L 0.519531 -9.011719 C 1.207031 -8.628906 1.84375 -8.050781 2.433594 -7.277344 C 3.339844 -6.089844 3.796875 -4.757812 3.796875 -3.28125 Z "/>
</g>
</g>
<image id="source-10" x="0" y="0" width="0" height="0"/>
<mask id="mask-0">
<use xlink:href="#source-10"/>
</mask>
</defs>
<g fill="rgb(100%, 100%, 100%)" fill-opacity="1">
<use xlink:href="#glyph-0-0" x="30" y="30"/>
<use xlink:href="#glyph-0-1" x="37" y="30"/>
<use xlink:href="#glyph-0-2" x="41" y="30"/>
<use xlink:href="#glyph-0-3" x="47" y="30"/>
<use xlink:href="#glyph-0-4" x="54" y="30"/>
<use xlink:href="#glyph-0-5" x="57" y="30"/>
<use xlink:href="#glyph-0-4" x="66" y="30"/>
<use xlink:href="#glyph-0-6" x="69" y="30"/>
<use xlink:href="#glyph-0-7" x="73" y="30"/>
<use xlink:href="#glyph-0-8" x="82" y="30"/>
<use xlink:href="#glyph-0-8" x="92" y="30"/>
<use xlink:href="#glyph-0-9" x="102" y="30"/>
</g>
</svg>
