<?xml version="1.0" encoding="UTF-8"?>
<svg xmlns="http://www.w3.org/2000/svg" xmlns:xlink="http://www.w3.org/1999/xlink" width="854" height="480" viewBox="0 0 854 480">
<defs>
<g>
<g id="glyph-0-0">
<path d="M 5.769531 -6.398438 C 5.769531 -7.214844 5.417969 -7.777344 4.714844 -8.078125 C 4.335938 -8.242188 3.859375 -8.328125 3.28125 -8.328125 C 3.007812 -8.328125 2.839844 -8.300781 2.777344 -8.246094 C 2.714844 -8.191406 2.683594 -8.070312 2.683594 -7.882812 L 2.683594 -4.40625 C 2.921875 -4.386719 3.078125 -4.371094 3.152344 -4.367188 C 3.226562 -4.363281 3.296875 -4.363281 3.367188 -4.363281 C 3.976562 -4.363281 4.460938 -4.449219 4.8125 -4.621094 C 5.449219 -4.9375 5.769531 -5.53125 5.769531 -6.398438 Z M 0.214844 -0.242188 C 0.722656 -0.289062 1.039062 -0.390625 1.164062 -0.542969 C 1.289062 -0.699219 1.355469 -1.050781 1.355469 -1.601562 L 1.355469 -7.375 C 1.355469 -7.839844 1.285156 -8.148438 1.140625 -8.292969 C 1 -8.441406 0.691406 -8.535156 0.214844 -8.574219 L 0.214844 -8.820312 L 3.730469 -8.820312 C 4.859375 -8.820312 5.722656 -8.601562 6.320312 -8.164062 C 6.921875 -7.726562 7.21875 -7.148438 7.21875 -6.433594 C 7.21875 -5.527344 6.886719 -4.867188 6.222656 -4.460938 C 5.558594 -4.050781 4.730469 -3.847656 3.730469 -3.847656 C 3.585938 -3.847656 3.402344 -3.851562 3.179688 -3.855469 C 2.957031 -3.863281 2.789062 -3.867188 2.683594 -3.867188 L 2.683594 -1.445312 C 2.683594 -0.941406 2.757812 -0.625 2.914062 -0.496094 C 3.066406 -0.363281 3.410156 -0.28125 3.945312 -0.242188 L 3.945312 0 L 0.214844 0 Z "/>
</g>
<g id="glyph-0-1">
<path d="M 0.261719 -8.820312 L 7.792969 -8.820312 L 7.863281 -6.554688 L 7.546875 -6.554688 C 7.390625 -7.265625 7.191406 -7.730469 6.949219 -7.945312 C 6.707031 -8.160156 6.203125 -8.269531 5.429688 -8.269531 L 4.6875 -8.269531 L 4.6875 -1.445312 C 4.6875 -0.929688 4.769531 -0.609375 4.929688 -0.484375 C 5.089844 -0.359375 5.441406 -0.28125 5.984375 -0.242188 L 5.984375 0 L 2.097656 0 L 2.097656 -0.242188 C 2.660156 -0.285156 3.011719 -0.378906 3.152344 -0.519531 C 3.289062 -0.664062 3.359375 -1.023438 3.359375 -1.601562 L 3.359375 -8.269531 L 2.617188 -8.269531 C 1.878906 -8.269531 1.375 -8.160156 1.109375 -7.949219 C 0.84375 -7.738281 0.640625 -7.273438 0.507812 -6.554688 L 0.183594 -6.554688 Z "/>
</g>
<g id="glyph-0-2">
<path d="M 0.859375 -2.683594 C 1.085938 -2.082031 1.351562 -1.605469 1.652344 -1.25 C 2.183594 -0.628906 2.839844 -0.320312 3.625 -0.320312 C 4.050781 -0.320312 4.417969 -0.453125 4.730469 -0.722656 C 5.039062 -0.992188 5.195312 -1.367188 5.195312 -1.847656 C 5.195312 -2.28125 5.039062 -2.660156 4.726562 -2.980469 C 4.523438 -3.183594 4.09375 -3.492188 3.4375 -3.898438 L 2.296875 -4.609375 C 1.953125 -4.828125 1.683594 -5.046875 1.476562 -5.265625 C 1.101562 -5.6875 0.910156 -6.152344 0.910156 -6.660156 C 0.910156 -7.332031 1.136719 -7.894531 1.582031 -8.339844 C 2.027344 -8.785156 2.621094 -9.011719 3.359375 -9.011719 C 3.664062 -9.011719 4.027344 -8.933594 4.457031 -8.785156 C 4.882812 -8.636719 5.128906 -8.5625 5.1875 -8.5625 C 5.351562 -8.5625 5.46875 -8.601562 5.53125 -8.679688 C 5.59375 -8.757812 5.640625 -8.867188 5.675781 -9.011719 L 5.949219 -9.011719 L 6.242188 -6.171875 L 5.925781 -6.171875 C 5.707031 -7.027344 5.359375 -7.625 4.878906 -7.960938 C 4.398438 -8.300781 3.925781 -8.46875 3.457031 -8.46875 C 3.09375 -8.46875 2.773438 -8.363281 2.503906 -8.148438 C 2.230469 -7.933594 2.097656 -7.632812 2.097656 -7.253906 C 2.097656 -6.910156 2.199219 -6.617188 2.410156 -6.375 C 2.617188 -6.125 2.941406 -5.867188 3.378906 -5.597656 L 4.550781 -4.875 C 5.285156 -4.425781 5.800781 -4.011719 6.101562 -3.632812 C 6.394531 -3.25 6.542969 -2.800781 6.542969 -2.277344 C 6.542969 -1.578125 6.277344 -0.996094 5.75 -0.527344 C 5.222656 -0.0585938 4.550781 0.175781 3.730469 0.175781 C 3.316406 0.175781 2.886719 0.0976562 2.4375 -0.0585938 C 1.988281 -0.214844 1.730469 -0.292969 1.667969 -0.292969 C 1.511719 -0.292969 1.40625 -0.246094 1.351562 -0.148438 C 1.296875 -0.0546875 1.261719 0.046875 1.242188 0.15625 L 0.949219 0.15625 L 0.554688 -2.683594 Z "/>
</g>
</g>
</defs>
<g fill="rgb(100%, 100%, 100%)" fill-opacity="1">
<use xlink:href="#glyph-0-0" x="30" y="30"/>
<use xlink:href="#glyph-0-1" x="37" y="30"/>
<use xlink:href="#glyph-0-2" x="45" y="30"/>
</g>
</svg>
