<?xml version="1.0" encoding="UTF-8"?>
<svg xmlns="http://www.w3.org/2000/svg" xmlns:xlink="http://www.w3.org/1999/xlink" width="854" height="480" viewBox="0 0 854 480">
<defs>
<g>
<g id="glyph-0-0">
<path d="M 0.109375 -3.675781 L 3.246094 -3.675781 L 3.277344 -2.730469 L 3.144531 -2.730469 C 3.078125 -3.027344 2.996094 -3.222656 2.894531 -3.3125 C 2.796875 -3.402344 2.585938 -3.445312 2.261719 -3.445312 L 1.953125 -3.445312 L 1.953125 -0.601562 C 1.953125 -0.386719 1.988281 -0.253906 2.054688 -0.203125 C 2.121094 -0.152344 2.265625 -0.117188 2.492188 -0.101562 L 2.492188 0 L 0.875 0 L 0.875 -0.101562 C 1.109375 -0.117188 1.253906 -0.15625 1.3125 -0.21875 C 1.371094 -0.277344 1.398438 -0.425781 1.398438 -0.667969 L 1.398438 -3.445312 L 1.089844 -3.445312 C 0.78125 -3.445312 0.574219 -3.402344 0.460938 -3.3125 C 0.351562 -3.222656 0.269531 -3.03125 0.210938 -2.730469 L 0.0742188 -2.730469 Z "/>
</g>
<g id="glyph-0-1">
<path d="M 0.792969 -1.835938 C 0.792969 -1.253906 0.910156 -0.820312 1.140625 -0.542969 C 1.371094 -0.261719 1.652344 -0.121094 1.984375 -0.121094 C 2.3125 -0.121094 2.59375 -0.257812 2.824219 -0.53125 C 3.058594 -0.804688 3.175781 -1.238281 3.175781 -1.835938 C 3.175781 -2.441406 3.054688 -2.878906 2.820312 -3.148438 C 2.585938 -3.417969 2.308594 -3.554688 1.984375 -3.554688 C 1.652344 -3.554688 1.371094 -3.414062 1.140625 -3.132812 C 0.910156 -2.855469 0.792969 -2.421875 0.792969 -1.835938 Z M 0.164062 -1.835938 C 0.164062 -2.429688 0.351562 -2.90625 0.722656 -3.261719 C 1.066406 -3.589844 1.488281 -3.753906 1.984375 -3.753906 C 2.484375 -3.753906 2.90625 -3.589844 3.25 -3.261719 C 3.621094 -2.90625 3.804688 -2.429688 3.804688 -1.835938 C 3.804688 -1.234375 3.613281 -0.753906 3.230469 -0.398438 C 2.886719 -0.0820312 2.472656 0.078125 1.984375 0.078125 C 1.464844 0.078125 1.03125 -0.0976562 0.6875 -0.449219 C 0.339844 -0.808594 0.164062 -1.273438 0.164062 -1.835938 Z "/>
</g>
<g id="glyph-0-2">
<path d="M 1.566406 -3.675781 L 1.566406 -3.574219 C 1.429688 -3.570312 1.332031 -3.5625 1.28125 -3.546875 C 1.195312 -3.515625 1.148438 -3.457031 1.148438 -3.371094 C 1.148438 -3.324219 1.167969 -3.261719 1.199219 -3.179688 C 1.230469 -3.097656 1.289062 -2.960938 1.375 -2.769531 L 2.242188 -0.835938 L 3.03125 -2.929688 C 3.066406 -3.023438 3.09375 -3.101562 3.113281 -3.164062 C 3.128906 -3.226562 3.136719 -3.277344 3.136719 -3.316406 C 3.136719 -3.425781 3.09375 -3.496094 3 -3.535156 C 2.945312 -3.554688 2.855469 -3.570312 2.730469 -3.574219 L 2.730469 -3.675781 L 3.867188 -3.675781 L 3.867188 -3.582031 C 3.75 -3.566406 3.664062 -3.53125 3.609375 -3.484375 C 3.523438 -3.414062 3.4375 -3.273438 3.355469 -3.058594 L 2.125 0.0664062 L 2.042969 0.0664062 L 0.671875 -2.988281 C 0.558594 -3.246094 0.464844 -3.410156 0.394531 -3.472656 C 0.324219 -3.535156 0.222656 -3.570312 0.0898438 -3.582031 L 0.0898438 -3.675781 Z "/>
</g>
</g>
</defs>
<g fill="rgb(100%, 100%, 100%)" fill-opacity="1">
<use xlink:href="#glyph-0-0" x="30" y="24.166992"/>
<use xlink:href="#glyph-0-1" x="33" y="24.166992"/>
<use xlink:href="#glyph-0-2" x="37" y="24.166992"/>
</g>
</svg>
