<?xml version="1.0" encoding="UTF-8"?>
<svg xmlns="http://www.w3.org/2000/svg" xmlns:xlink="http://www.w3.org/1999/xlink" width="854" height="480" viewBox="0 0 854 480">
<defs>
<g>
<g id="glyph-0-0">
<path d="M 1.15625 -2.574219 L 1.15625 -2.5 C 1.007812 -2.492188 0.910156 -2.464844 0.867188 -2.425781 C 0.820312 -2.386719 0.800781 -2.292969 0.800781 -2.152344 L 0.800781 -0.90625 C 0.800781 -0.703125 0.828125 -0.546875 0.882812 -0.429688 C 0.988281 -0.222656 1.183594 -0.121094 1.472656 -0.121094 C 1.792969 -0.121094 2.003906 -0.226562 2.113281 -0.4375 C 2.175781 -0.558594 2.203125 -0.742188 2.203125 -0.988281 L 2.203125 -2 C 2.203125 -2.210938 2.179688 -2.347656 2.128906 -2.398438 C 2.078125 -2.453125 1.980469 -2.488281 1.839844 -2.5 L 1.839844 -2.574219 L 2.742188 -2.574219 L 2.742188 -2.5 C 2.589844 -2.484375 2.492188 -2.449219 2.445312 -2.390625 C 2.398438 -2.335938 2.375 -2.207031 2.375 -2 L 2.375 -0.988281 C 2.375 -0.71875 2.335938 -0.511719 2.253906 -0.359375 C 2.101562 -0.0820312 1.8125 0.0546875 1.386719 0.0546875 C 0.964844 0.0546875 0.679688 -0.0820312 0.527344 -0.355469 C 0.445312 -0.503906 0.40625 -0.695312 0.40625 -0.9375 L 0.40625 -2.152344 C 0.40625 -2.292969 0.382812 -2.382812 0.339844 -2.425781 C 0.296875 -2.464844 0.199219 -2.488281 0.0546875 -2.5 L 0.0546875 -2.574219 Z "/>
</g>
<g id="glyph-0-1">
<path d="M 0.25 -0.78125 C 0.316406 -0.605469 0.394531 -0.46875 0.480469 -0.363281 C 0.636719 -0.183594 0.828125 -0.09375 1.058594 -0.09375 C 1.183594 -0.09375 1.289062 -0.132812 1.378906 -0.210938 C 1.46875 -0.289062 1.515625 -0.398438 1.515625 -0.539062 C 1.515625 -0.664062 1.46875 -0.777344 1.378906 -0.871094 C 1.320312 -0.929688 1.195312 -1.019531 1.003906 -1.136719 L 0.671875 -1.34375 C 0.570312 -1.40625 0.492188 -1.472656 0.429688 -1.535156 C 0.320312 -1.660156 0.265625 -1.792969 0.265625 -1.941406 C 0.265625 -2.140625 0.332031 -2.300781 0.460938 -2.433594 C 0.589844 -2.5625 0.765625 -2.628906 0.980469 -2.628906 C 1.070312 -2.628906 1.175781 -2.605469 1.300781 -2.5625 C 1.425781 -2.519531 1.496094 -2.496094 1.515625 -2.496094 C 1.5625 -2.496094 1.59375 -2.507812 1.613281 -2.53125 C 1.632812 -2.554688 1.644531 -2.585938 1.65625 -2.628906 L 1.734375 -2.628906 L 1.820312 -1.800781 L 1.726562 -1.800781 C 1.664062 -2.050781 1.5625 -2.222656 1.421875 -2.324219 C 1.28125 -2.421875 1.144531 -2.472656 1.007812 -2.472656 C 0.902344 -2.472656 0.808594 -2.441406 0.730469 -2.375 C 0.652344 -2.3125 0.613281 -2.226562 0.613281 -2.117188 C 0.613281 -2.015625 0.640625 -1.929688 0.703125 -1.859375 C 0.761719 -1.789062 0.859375 -1.710938 0.984375 -1.632812 L 1.328125 -1.421875 C 1.542969 -1.289062 1.691406 -1.171875 1.78125 -1.058594 C 1.867188 -0.949219 1.910156 -0.816406 1.910156 -0.664062 C 1.910156 -0.460938 1.832031 -0.289062 1.679688 -0.152344 C 1.523438 -0.015625 1.328125 0.0507812 1.089844 0.0507812 C 0.96875 0.0507812 0.84375 0.0273438 0.710938 -0.015625 C 0.582031 -0.0625 0.503906 -0.0859375 0.484375 -0.0859375 C 0.441406 -0.0859375 0.410156 -0.0703125 0.394531 -0.0429688 C 0.378906 -0.015625 0.367188 0.015625 0.363281 0.046875 L 0.277344 0.046875 L 0.160156 -0.78125 Z "/>
</g>
<g id="glyph-0-2">
<path d="M 1.734375 -1 L 1.285156 -2.070312 L 0.839844 -1 Z M 0.0585938 0 L 0.0585938 -0.0703125 C 0.15625 -0.0820312 0.230469 -0.121094 0.28125 -0.183594 C 0.332031 -0.25 0.417969 -0.425781 0.539062 -0.710938 L 1.351562 -2.617188 L 1.425781 -2.617188 L 2.394531 -0.414062 C 2.460938 -0.265625 2.511719 -0.175781 2.550781 -0.140625 C 2.589844 -0.105469 2.652344 -0.0820312 2.746094 -0.0703125 L 2.746094 0 L 1.753906 0 L 1.753906 -0.0703125 C 1.867188 -0.0820312 1.941406 -0.09375 1.976562 -0.105469 C 2.007812 -0.121094 2.023438 -0.15625 2.023438 -0.214844 C 2.023438 -0.234375 2.019531 -0.265625 2.003906 -0.316406 C 1.992188 -0.363281 1.976562 -0.414062 1.953125 -0.46875 L 1.789062 -0.839844 L 0.773438 -0.839844 C 0.671875 -0.585938 0.609375 -0.429688 0.589844 -0.375 C 0.570312 -0.320312 0.5625 -0.273438 0.5625 -0.242188 C 0.5625 -0.175781 0.589844 -0.128906 0.640625 -0.105469 C 0.675781 -0.0898438 0.738281 -0.078125 0.828125 -0.0703125 L 0.828125 0 Z "/>
</g>
</g>
</defs>
<g fill="rgb(100%, 100%, 100%)" fill-opacity="1">
<use xlink:href="#glyph-0-0" x="30" y="22.916992"/>
<use xlink:href="#glyph-0-1" x="33" y="22.916992"/>
<use xlink:href="#glyph-0-2" x="35" y="22.916992"/>
</g>
</svg>
