<?xml version="1.0" encoding="UTF-8"?>
<svg xmlns="http://www.w3.org/2000/svg" xmlns:xlink="http://www.w3.org/1999/xlink" width="854" height="480" viewBox="0 0 854 480">
<defs>
<g>
<g id="glyph-0-0">
<path d="M 2.339844 -1.109375 C 2.339844 -0.8125 2.242188 -0.542969 2.050781 -0.304688 C 1.859375 -0.0664062 1.613281 0.0546875 1.304688 0.0546875 C 1.019531 0.0546875 0.757812 -0.0820312 0.523438 -0.347656 C 0.289062 -0.617188 0.171875 -0.976562 0.171875 -1.421875 C 0.171875 -1.996094 0.398438 -2.488281 0.855469 -2.898438 C 1.261719 -3.246094 1.71875 -3.417969 2.226562 -3.417969 L 2.238281 -3.335938 C 2.035156 -3.300781 1.859375 -3.25 1.710938 -3.183594 C 1.566406 -3.121094 1.433594 -3.03125 1.320312 -2.914062 C 1.199219 -2.796875 1.089844 -2.648438 0.984375 -2.46875 C 0.878906 -2.289062 0.808594 -2.109375 0.769531 -1.929688 C 0.871094 -1.992188 0.957031 -2.039062 1.03125 -2.066406 C 1.160156 -2.121094 1.292969 -2.144531 1.421875 -2.144531 C 1.679688 -2.144531 1.898438 -2.054688 2.074219 -1.878906 C 2.25 -1.699219 2.339844 -1.441406 2.339844 -1.109375 Z M 1.890625 -0.921875 C 1.890625 -1.140625 1.859375 -1.332031 1.789062 -1.5 C 1.675781 -1.78125 1.480469 -1.917969 1.207031 -1.917969 C 0.957031 -1.917969 0.789062 -1.84375 0.707031 -1.695312 C 0.65625 -1.605469 0.632812 -1.460938 0.632812 -1.253906 C 0.632812 -0.988281 0.6875 -0.730469 0.800781 -0.476562 C 0.914062 -0.222656 1.09375 -0.09375 1.335938 -0.09375 C 1.53125 -0.09375 1.671875 -0.179688 1.761719 -0.34375 C 1.847656 -0.507812 1.890625 -0.703125 1.890625 -0.921875 Z "/>
</g>
<g id="glyph-0-1">
<path d="M 1.273438 -2.25 L 1.273438 -2.074219 L 0.773438 -2.074219 L 0.769531 -0.667969 C 0.769531 -0.546875 0.78125 -0.453125 0.800781 -0.386719 C 0.839844 -0.273438 0.917969 -0.21875 1.03125 -0.21875 C 1.089844 -0.21875 1.140625 -0.234375 1.183594 -0.261719 C 1.226562 -0.289062 1.273438 -0.332031 1.332031 -0.394531 L 1.394531 -0.339844 L 1.339844 -0.265625 C 1.253906 -0.152344 1.167969 -0.0703125 1.070312 -0.0234375 C 0.976562 0.0234375 0.886719 0.046875 0.796875 0.046875 C 0.605469 0.046875 0.476562 -0.0390625 0.40625 -0.210938 C 0.371094 -0.304688 0.351562 -0.429688 0.351562 -0.59375 L 0.351562 -2.074219 L 0.0859375 -2.074219 C 0.078125 -2.078125 0.0703125 -2.085938 0.0664062 -2.089844 C 0.0625 -2.09375 0.0625 -2.101562 0.0625 -2.109375 C 0.0625 -2.125 0.0664062 -2.136719 0.0703125 -2.148438 C 0.078125 -2.15625 0.101562 -2.175781 0.140625 -2.210938 C 0.253906 -2.304688 0.335938 -2.378906 0.382812 -2.433594 C 0.433594 -2.492188 0.550781 -2.644531 0.734375 -2.894531 C 0.757812 -2.894531 0.769531 -2.890625 0.773438 -2.886719 C 0.777344 -2.882812 0.777344 -2.871094 0.777344 -2.851562 L 0.777344 -2.25 Z "/>
</g>
<g id="glyph-0-2">
<path d="M 0.0429688 -0.0703125 C 0.175781 -0.0859375 0.265625 -0.121094 0.304688 -0.167969 C 0.347656 -0.214844 0.367188 -0.328125 0.367188 -0.507812 L 0.367188 -2.851562 C 0.367188 -2.941406 0.355469 -3.011719 0.332031 -3.054688 C 0.308594 -3.097656 0.253906 -3.117188 0.160156 -3.117188 C 0.144531 -3.117188 0.125 -3.117188 0.109375 -3.113281 C 0.09375 -3.109375 0.0742188 -3.109375 0.0507812 -3.105469 L 0.0507812 -3.195312 C 0.121094 -3.214844 0.210938 -3.238281 0.316406 -3.269531 C 0.421875 -3.300781 0.492188 -3.320312 0.535156 -3.335938 L 0.769531 -3.40625 L 0.773438 -3.390625 L 0.773438 -1.890625 C 0.875 -2.007812 0.96875 -2.09375 1.046875 -2.152344 C 1.191406 -2.25 1.34375 -2.296875 1.511719 -2.296875 C 1.773438 -2.296875 1.953125 -2.1875 2.050781 -1.964844 C 2.101562 -1.847656 2.128906 -1.695312 2.128906 -1.503906 L 2.128906 -0.507812 C 2.128906 -0.335938 2.148438 -0.222656 2.1875 -0.171875 C 2.226562 -0.117188 2.308594 -0.0859375 2.433594 -0.0703125 L 2.433594 0 L 1.375 0 L 1.375 -0.0703125 C 1.519531 -0.0898438 1.609375 -0.121094 1.648438 -0.167969 C 1.691406 -0.214844 1.710938 -0.328125 1.710938 -0.507812 L 1.710938 -1.496094 C 1.710938 -1.65625 1.683594 -1.78125 1.632812 -1.878906 C 1.578125 -1.976562 1.480469 -2.027344 1.332031 -2.027344 C 1.207031 -2.027344 1.082031 -1.980469 0.964844 -1.890625 C 0.84375 -1.796875 0.785156 -1.738281 0.785156 -1.710938 L 0.785156 -0.507812 C 0.785156 -0.324219 0.808594 -0.210938 0.851562 -0.164062 C 0.890625 -0.121094 0.980469 -0.0859375 1.121094 -0.0703125 L 1.121094 0 L 0.0429688 0 Z "/>
</g>
</g>
</defs>
<g fill="rgb(100%, 100%, 100%)" fill-opacity="1">
<use xlink:href="#glyph-0-0" x="30" y="23.75"/>
<use xlink:href="#glyph-0-1" x="33" y="23.75"/>
<use xlink:href="#glyph-0-2" x="34" y="23.75"/>
</g>
</svg>
