<?xml version="1.0" encoding="UTF-8"?>
<svg xmlns="http://www.w3.org/2000/svg" xmlns:xlink="http://www.w3.org/1999/xlink" width="854" height="480" viewBox="0 0 854 480">
<defs>
<g>
<g id="glyph-0-0">
<path d="M 0.140625 -0.105469 C 0.320312 -0.128906 0.445312 -0.175781 0.519531 -0.242188 C 0.589844 -0.308594 0.625 -0.457031 0.625 -0.691406 L 0.625 -2.617188 C 0.625 -2.777344 0.613281 -2.890625 0.582031 -2.957031 C 0.535156 -3.054688 0.433594 -3.101562 0.285156 -3.101562 C 0.261719 -3.101562 0.238281 -3.101562 0.214844 -3.097656 C 0.191406 -3.097656 0.160156 -3.09375 0.125 -3.085938 L 0.125 -3.21875 C 0.230469 -3.25 0.476562 -3.328125 0.863281 -3.457031 L 1.21875 -3.574219 C 1.238281 -3.574219 1.246094 -3.566406 1.25 -3.554688 C 1.253906 -3.542969 1.257812 -3.523438 1.257812 -3.5 L 1.257812 -2.941406 C 1.488281 -3.160156 1.671875 -3.308594 1.804688 -3.390625 C 2 -3.515625 2.207031 -3.578125 2.417969 -3.578125 C 2.589844 -3.578125 2.75 -3.527344 2.890625 -3.429688 C 3.164062 -3.238281 3.300781 -2.894531 3.300781 -2.398438 L 3.300781 -0.625 C 3.300781 -0.445312 3.335938 -0.3125 3.410156 -0.230469 C 3.484375 -0.148438 3.605469 -0.109375 3.777344 -0.105469 L 3.777344 0 L 2.15625 0 L 2.15625 -0.105469 C 2.339844 -0.132812 2.472656 -0.183594 2.542969 -0.261719 C 2.617188 -0.335938 2.65625 -0.503906 2.65625 -0.761719 L 2.65625 -2.386719 C 2.65625 -2.601562 2.613281 -2.78125 2.53125 -2.925781 C 2.453125 -3.070312 2.300781 -3.140625 2.085938 -3.140625 C 1.9375 -3.140625 1.785156 -3.089844 1.628906 -2.988281 C 1.542969 -2.929688 1.433594 -2.835938 1.296875 -2.699219 L 1.296875 -0.574219 C 1.296875 -0.390625 1.335938 -0.269531 1.417969 -0.207031 C 1.496094 -0.144531 1.625 -0.113281 1.800781 -0.105469 L 1.800781 0 L 0.140625 0 Z "/>
</g>
<g id="glyph-0-1">
<rect x="0" y="0" width="0" height="0" mask="url(#mask-0)"/>
</g>
<g id="glyph-0-2">
<path d="M 4.160156 -1.445312 L 4.160156 -0.914062 L 0.230469 -0.914062 L 0.230469 -1.445312 Z M 4.160156 -3.015625 L 4.160156 -2.484375 L 0.230469 -2.484375 L 0.230469 -3.015625 Z "/>
</g>
<g id="glyph-0-3">
<path d="M 0.125 -0.0976562 C 0.324219 -0.117188 0.453125 -0.148438 0.519531 -0.199219 C 0.621094 -0.269531 0.671875 -0.417969 0.671875 -0.636719 L 0.671875 -2.601562 C 0.671875 -2.789062 0.648438 -2.910156 0.597656 -2.96875 C 0.546875 -3.027344 0.46875 -3.058594 0.351562 -3.058594 C 0.300781 -3.058594 0.261719 -3.054688 0.234375 -3.050781 C 0.207031 -3.042969 0.175781 -3.035156 0.140625 -3.023438 L 0.140625 -3.15625 L 0.414062 -3.246094 C 0.511719 -3.28125 0.675781 -3.339844 0.898438 -3.425781 C 1.125 -3.511719 1.246094 -3.554688 1.257812 -3.554688 C 1.269531 -3.554688 1.277344 -3.546875 1.28125 -3.535156 C 1.28125 -3.523438 1.285156 -3.5 1.285156 -3.464844 L 1.285156 -2.949219 C 1.535156 -3.179688 1.75 -3.335938 1.933594 -3.421875 C 2.117188 -3.511719 2.300781 -3.554688 2.496094 -3.554688 C 2.757812 -3.554688 2.964844 -3.464844 3.117188 -3.289062 C 3.199219 -3.191406 3.265625 -3.0625 3.320312 -2.898438 C 3.507812 -3.085938 3.667969 -3.226562 3.808594 -3.320312 C 4.050781 -3.476562 4.296875 -3.554688 4.546875 -3.554688 C 4.953125 -3.554688 5.226562 -3.386719 5.363281 -3.058594 C 5.441406 -2.871094 5.480469 -2.574219 5.480469 -2.167969 L 5.480469 -0.59375 C 5.480469 -0.414062 5.519531 -0.289062 5.597656 -0.226562 C 5.679688 -0.160156 5.824219 -0.117188 6.03125 -0.0976562 L 6.03125 0 L 4.316406 0 L 4.316406 -0.105469 C 4.539062 -0.125 4.683594 -0.171875 4.753906 -0.238281 C 4.824219 -0.308594 4.855469 -0.445312 4.855469 -0.65625 L 4.855469 -2.292969 C 4.855469 -2.539062 4.832031 -2.71875 4.777344 -2.835938 C 4.683594 -3.042969 4.5 -3.148438 4.226562 -3.148438 C 4.0625 -3.148438 3.898438 -3.09375 3.738281 -2.984375 C 3.644531 -2.921875 3.527344 -2.820312 3.390625 -2.679688 L 3.390625 -0.738281 C 3.390625 -0.53125 3.425781 -0.375 3.5 -0.269531 C 3.570312 -0.164062 3.722656 -0.105469 3.957031 -0.0976562 L 3.957031 0 L 2.214844 0 L 2.214844 -0.0976562 C 2.453125 -0.128906 2.609375 -0.1875 2.671875 -0.273438 C 2.738281 -0.359375 2.773438 -0.570312 2.773438 -0.90625 L 2.773438 -1.972656 C 2.773438 -2.363281 2.746094 -2.628906 2.695312 -2.777344 C 2.613281 -3.023438 2.433594 -3.148438 2.164062 -3.148438 C 2.011719 -3.148438 1.859375 -3.105469 1.707031 -3.019531 C 1.558594 -2.9375 1.429688 -2.824219 1.3125 -2.6875 L 1.3125 -0.613281 C 1.3125 -0.417969 1.347656 -0.285156 1.414062 -0.210938 C 1.480469 -0.136719 1.628906 -0.101562 1.851562 -0.0976562 L 1.851562 0 L 0.125 0 Z "/>
</g>
<g id="glyph-0-4">
<path d="M 1.800781 -3.488281 L 1.800781 -3.382812 C 1.703125 -3.378906 1.621094 -3.367188 1.554688 -3.34375 C 1.488281 -3.320312 1.453125 -3.269531 1.453125 -3.195312 C 1.453125 -3.144531 1.523438 -3.011719 1.65625 -2.789062 C 1.726562 -2.671875 1.816406 -2.527344 1.925781 -2.359375 C 2.074219 -2.5625 2.1875 -2.722656 2.257812 -2.839844 C 2.382812 -3.027344 2.445312 -3.148438 2.445312 -3.207031 C 2.445312 -3.273438 2.417969 -3.316406 2.367188 -3.339844 C 2.3125 -3.363281 2.238281 -3.375 2.140625 -3.382812 L 2.140625 -3.488281 L 3.363281 -3.488281 L 3.363281 -3.382812 C 3.234375 -3.375 3.117188 -3.339844 3.003906 -3.277344 C 2.890625 -3.21875 2.800781 -3.140625 2.734375 -3.042969 L 2.085938 -2.105469 L 3.085938 -0.585938 C 3.214844 -0.386719 3.324219 -0.257812 3.414062 -0.203125 C 3.503906 -0.144531 3.609375 -0.113281 3.726562 -0.105469 L 3.726562 0 L 2.15625 0 L 2.15625 -0.105469 L 2.265625 -0.113281 C 2.324219 -0.117188 2.375 -0.136719 2.414062 -0.167969 C 2.453125 -0.199219 2.472656 -0.234375 2.472656 -0.28125 C 2.472656 -0.328125 2.425781 -0.433594 2.328125 -0.601562 C 2.28125 -0.679688 2.214844 -0.792969 2.121094 -0.929688 C 2.078125 -1 2.015625 -1.09375 1.929688 -1.214844 C 1.847656 -1.335938 1.773438 -1.441406 1.714844 -1.527344 L 1.105469 -0.574219 C 1.03125 -0.460938 0.984375 -0.382812 0.96875 -0.34375 C 0.949219 -0.308594 0.941406 -0.277344 0.941406 -0.25 C 0.941406 -0.203125 0.960938 -0.171875 1 -0.15625 C 1.039062 -0.140625 1.125 -0.125 1.257812 -0.105469 L 1.257812 0 L 0.132812 0 L 0.132812 -0.105469 C 0.269531 -0.132812 0.371094 -0.167969 0.4375 -0.210938 C 0.503906 -0.253906 0.589844 -0.355469 0.699219 -0.511719 L 1.582031 -1.800781 L 0.855469 -2.90625 C 0.707031 -3.125 0.605469 -3.253906 0.550781 -3.296875 C 0.496094 -3.335938 0.375 -3.367188 0.1875 -3.382812 L 0.1875 -3.488281 Z "/>
</g>
<g id="glyph-0-5">
<path d="M 1.242188 -0.699219 C 1.308594 -0.527344 1.40625 -0.398438 1.535156 -0.3125 C 1.667969 -0.226562 1.820312 -0.1875 1.996094 -0.1875 C 2.269531 -0.1875 2.503906 -0.320312 2.699219 -0.59375 C 2.890625 -0.867188 2.988281 -1.246094 2.988281 -1.730469 C 2.988281 -2.195312 2.886719 -2.546875 2.6875 -2.777344 C 2.484375 -3.007812 2.25 -3.121094 1.984375 -3.121094 C 1.796875 -3.121094 1.628906 -3.0625 1.472656 -2.949219 C 1.320312 -2.832031 1.242188 -2.71875 1.242188 -2.609375 Z M 0.0351562 1.570312 C 0.273438 1.554688 0.421875 1.503906 0.488281 1.417969 C 0.550781 1.332031 0.585938 1.195312 0.585938 1.011719 L 0.585938 -2.636719 C 0.585938 -2.828125 0.5625 -2.953125 0.515625 -3.003906 C 0.46875 -3.058594 0.378906 -3.085938 0.25 -3.085938 C 0.222656 -3.085938 0.195312 -3.085938 0.171875 -3.082031 C 0.148438 -3.082031 0.113281 -3.074219 0.0664062 -3.070312 L 0.0664062 -3.195312 L 0.429688 -3.3125 C 0.441406 -3.3125 0.695312 -3.402344 1.191406 -3.574219 C 1.203125 -3.574219 1.214844 -3.566406 1.222656 -3.554688 C 1.226562 -3.542969 1.230469 -3.53125 1.230469 -3.515625 L 1.230469 -3.003906 C 1.398438 -3.171875 1.542969 -3.296875 1.671875 -3.375 C 1.898438 -3.515625 2.132812 -3.589844 2.375 -3.589844 C 2.722656 -3.589844 3.023438 -3.441406 3.273438 -3.140625 C 3.527344 -2.84375 3.652344 -2.4375 3.652344 -1.921875 C 3.652344 -1.414062 3.503906 -0.957031 3.199219 -0.542969 C 2.898438 -0.128906 2.515625 0.0742188 2.058594 0.0742188 C 1.917969 0.0742188 1.792969 0.0585938 1.691406 0.0234375 C 1.527344 -0.03125 1.378906 -0.128906 1.242188 -0.269531 L 1.242188 0.972656 C 1.242188 1.226562 1.285156 1.386719 1.367188 1.441406 C 1.449219 1.5 1.632812 1.539062 1.914062 1.5625 L 1.914062 1.695312 L 0.0351562 1.695312 Z "/>
</g>
</g>
<image id="source-144" x="0" y="0" width="0" height="0"/>
<mask id="mask-0">
<use xlink:href="#source-144"/>
</mask>
</defs>
<g fill="rgb(100%, 100%, 100%)" fill-opacity="1">
<use xlink:href="#glyph-0-0" x="30" y="25.833008"/>
<use xlink:href="#glyph-0-1" x="34" y="25.833008"/>
<use xlink:href="#glyph-0-2" x="36" y="25.833008"/>
<use xlink:href="#glyph-0-1" x="40" y="25.833008"/>
<use xlink:href="#glyph-0-3" x="42" y="25.833008"/>
<use xlink:href="#glyph-0-1" x="48" y="25.833008"/>
<use xlink:href="#glyph-0-4" x="50" y="25.833008"/>
<use xlink:href="#glyph-0-1" x="54" y="25.833008"/>
<use xlink:href="#glyph-0-5" x="56" y="25.833008"/>
</g>
</svg>
