<?xml version="1.0" encoding="UTF-8"?>
<svg xmlns="http://www.w3.org/2000/svg" xmlns:xlink="http://www.w3.org/1999/xlink" width="854" height="480" viewBox="0 0 854 480">
<defs>
<g>
<g id="glyph-0-0">
<path d="M 2.339844 -1.109375 C 2.339844 -0.8125 2.242188 -0.542969 2.050781 -0.304688 C 1.859375 -0.0664062 1.613281 0.0546875 1.304688 0.0546875 C 1.019531 0.0546875 0.757812 -0.0820312 0.523438 -0.347656 C 0.289062 -0.617188 0.171875 -0.976562 0.171875 -1.421875 C 0.171875 -1.996094 0.398438 -2.488281 0.855469 -2.898438 C 1.261719 -3.246094 1.71875 -3.417969 2.226562 -3.417969 L 2.238281 -3.335938 C 2.035156 -3.300781 1.859375 -3.25 1.710938 -3.183594 C 1.566406 -3.121094 1.433594 -3.03125 1.320312 -2.914062 C 1.199219 -2.796875 1.089844 -2.648438 0.984375 -2.46875 C 0.878906 -2.289062 0.808594 -2.109375 0.769531 -1.929688 C 0.871094 -1.992188 0.957031 -2.039062 1.03125 -2.066406 C 1.160156 -2.121094 1.292969 -2.144531 1.421875 -2.144531 C 1.679688 -2.144531 1.898438 -2.054688 2.074219 -1.878906 C 2.25 -1.699219 2.339844 -1.441406 2.339844 -1.109375 Z M 1.890625 -0.921875 C 1.890625 -1.140625 1.859375 -1.332031 1.789062 -1.5 C 1.675781 -1.78125 1.480469 -1.917969 1.207031 -1.917969 C 0.957031 -1.917969 0.789062 -1.84375 0.707031 -1.695312 C 0.65625 -1.605469 0.632812 -1.460938 0.632812 -1.253906 C 0.632812 -0.988281 0.6875 -0.730469 0.800781 -0.476562 C 0.914062 -0.222656 1.09375 -0.09375 1.335938 -0.09375 C 1.53125 -0.09375 1.671875 -0.179688 1.761719 -0.34375 C 1.847656 -0.507812 1.890625 -0.703125 1.890625 -0.921875 Z "/>
</g>
</g>
</defs>
<g fill="rgb(100%, 100%, 100%)" fill-opacity="1">
<use xlink:href="#glyph-0-0" x="30" y="23.75"/>
</g>
</svg>
