<?xml version="1.0" encoding="UTF-8"?>
<svg xmlns="http://www.w3.org/2000/svg" xmlns:xlink="http://www.w3.org/1999/xlink" width="854" height="480" viewBox="0 0 854 480">
<defs>
<g>
<g id="glyph-0-0">
<path d="M 1.203125 -1.332031 C 1.203125 -1.503906 1.128906 -1.621094 0.980469 -1.683594 C 0.902344 -1.71875 0.804688 -1.734375 0.683594 -1.734375 C 0.625 -1.734375 0.589844 -1.730469 0.578125 -1.71875 C 0.566406 -1.707031 0.558594 -1.679688 0.558594 -1.640625 L 0.558594 -0.917969 C 0.609375 -0.914062 0.640625 -0.910156 0.65625 -0.910156 C 0.671875 -0.910156 0.6875 -0.910156 0.699219 -0.910156 C 0.828125 -0.910156 0.929688 -0.925781 1.003906 -0.960938 C 1.136719 -1.027344 1.203125 -1.152344 1.203125 -1.332031 Z M 0.0429688 -0.0507812 C 0.148438 -0.0585938 0.214844 -0.0820312 0.242188 -0.113281 C 0.269531 -0.144531 0.28125 -0.21875 0.28125 -0.332031 L 0.28125 -1.535156 C 0.28125 -1.632812 0.265625 -1.695312 0.238281 -1.726562 C 0.207031 -1.757812 0.144531 -1.777344 0.0429688 -1.785156 L 0.0429688 -1.835938 L 0.777344 -1.835938 C 1.011719 -1.835938 1.191406 -1.792969 1.316406 -1.699219 C 1.441406 -1.609375 1.503906 -1.488281 1.503906 -1.339844 C 1.503906 -1.152344 1.433594 -1.015625 1.296875 -0.929688 C 1.160156 -0.84375 0.984375 -0.800781 0.777344 -0.800781 C 0.746094 -0.800781 0.710938 -0.800781 0.664062 -0.804688 C 0.617188 -0.804688 0.582031 -0.804688 0.558594 -0.804688 L 0.558594 -0.300781 C 0.558594 -0.195312 0.574219 -0.128906 0.605469 -0.101562 C 0.636719 -0.0742188 0.710938 -0.0585938 0.820312 -0.0507812 L 0.820312 0 L 0.0429688 0 Z "/>
</g>
<g id="glyph-0-1">
<path d="M 0.03125 -0.0507812 C 0.140625 -0.0625 0.207031 -0.0820312 0.234375 -0.109375 C 0.261719 -0.136719 0.273438 -0.214844 0.273438 -0.332031 L 0.273438 -1.535156 C 0.273438 -1.632812 0.261719 -1.699219 0.230469 -1.730469 C 0.199219 -1.761719 0.132812 -1.777344 0.03125 -1.785156 L 0.03125 -1.835938 L 1.511719 -1.835938 L 1.519531 -1.4375 L 1.441406 -1.4375 C 1.421875 -1.566406 1.386719 -1.648438 1.335938 -1.679688 C 1.285156 -1.714844 1.179688 -1.730469 1.023438 -1.730469 L 0.644531 -1.730469 C 0.609375 -1.730469 0.585938 -1.726562 0.574219 -1.710938 C 0.5625 -1.699219 0.558594 -1.675781 0.558594 -1.636719 L 0.558594 -1.019531 L 0.960938 -1.019531 C 1.078125 -1.019531 1.152344 -1.035156 1.1875 -1.070312 C 1.21875 -1.105469 1.246094 -1.179688 1.265625 -1.285156 L 1.332031 -1.285156 L 1.332031 -0.644531 L 1.265625 -0.644531 C 1.246094 -0.75 1.21875 -0.820312 1.183594 -0.855469 C 1.152344 -0.890625 1.078125 -0.910156 0.960938 -0.910156 L 0.558594 -0.910156 L 0.558594 -0.300781 C 0.558594 -0.199219 0.574219 -0.132812 0.605469 -0.105469 C 0.636719 -0.078125 0.703125 -0.0585938 0.808594 -0.0507812 L 0.808594 0 L 0.03125 0 Z "/>
</g>
</g>
</defs>
<g fill="rgb(100%, 100%, 100%)" fill-opacity="1">
<use xlink:href="#glyph-0-0" x="30" y="22.083008"/>
<use xlink:href="#glyph-0-1" x="32" y="22.083008"/>
</g>
</svg>
