<?xml version="1.0" encoding="UTF-8"?>
<svg xmlns="http://www.w3.org/2000/svg" xmlns:xlink="http://www.w3.org/1999/xlink" width="854" height="480" viewBox="0 0 854 480">
<defs>
<g>
<g id="glyph-0-0">
<path d="M 3.96875 -2.28125 L 2.9375 -4.730469 L 1.921875 -2.28125 Z M 0.128906 0 L 0.128906 -0.160156 C 0.359375 -0.1875 0.53125 -0.273438 0.644531 -0.421875 C 0.757812 -0.570312 0.953125 -0.96875 1.234375 -1.625 L 3.085938 -5.984375 L 3.261719 -5.984375 L 5.472656 -0.945312 C 5.621094 -0.609375 5.738281 -0.402344 5.828125 -0.324219 C 5.914062 -0.242188 6.0625 -0.191406 6.273438 -0.160156 L 6.273438 0 L 4.011719 0 L 4.011719 -0.160156 C 4.273438 -0.183594 4.4375 -0.210938 4.515625 -0.246094 C 4.589844 -0.277344 4.628906 -0.359375 4.628906 -0.492188 C 4.628906 -0.535156 4.613281 -0.609375 4.582031 -0.71875 C 4.554688 -0.828125 4.515625 -0.945312 4.460938 -1.066406 L 4.09375 -1.921875 L 1.765625 -1.921875 C 1.535156 -1.339844 1.398438 -0.984375 1.351562 -0.855469 C 1.308594 -0.726562 1.285156 -0.625 1.285156 -0.550781 C 1.285156 -0.402344 1.34375 -0.296875 1.46875 -0.238281 C 1.542969 -0.203125 1.683594 -0.179688 1.890625 -0.160156 L 1.890625 0 Z "/>
</g>
<g id="glyph-0-1">
<path d="M 0.144531 -0.160156 C 0.492188 -0.199219 0.707031 -0.261719 0.792969 -0.355469 C 0.878906 -0.445312 0.925781 -0.683594 0.925781 -1.066406 L 0.925781 -4.917969 C 0.925781 -5.234375 0.875 -5.441406 0.777344 -5.539062 C 0.679688 -5.632812 0.46875 -5.695312 0.144531 -5.714844 L 0.144531 -5.882812 L 2.613281 -5.882812 L 2.613281 -5.714844 C 2.285156 -5.691406 2.074219 -5.632812 1.976562 -5.539062 C 1.878906 -5.441406 1.828125 -5.234375 1.828125 -4.917969 L 1.828125 -3.1875 L 4.523438 -3.1875 L 4.523438 -4.917969 C 4.523438 -5.234375 4.476562 -5.441406 4.378906 -5.539062 C 4.285156 -5.632812 4.070312 -5.695312 3.742188 -5.714844 L 3.742188 -5.882812 L 6.210938 -5.882812 L 6.210938 -5.714844 C 5.882812 -5.691406 5.671875 -5.632812 5.574219 -5.539062 C 5.476562 -5.441406 5.429688 -5.234375 5.429688 -4.917969 L 5.429688 -0.964844 C 5.429688 -0.640625 5.480469 -0.433594 5.574219 -0.339844 C 5.671875 -0.25 5.882812 -0.191406 6.210938 -0.160156 L 6.210938 0 L 3.742188 0 L 3.742188 -0.160156 C 4.09375 -0.195312 4.308594 -0.257812 4.394531 -0.351562 C 4.480469 -0.445312 4.523438 -0.683594 4.523438 -1.066406 L 4.523438 -2.796875 L 1.828125 -2.796875 L 1.828125 -0.964844 C 1.828125 -0.640625 1.875 -0.429688 1.976562 -0.339844 C 2.074219 -0.246094 2.285156 -0.1875 2.613281 -0.160156 L 2.613281 0 L 0.144531 0 Z "/>
</g>
<g id="glyph-0-2">
<path d="M 2.644531 -5.882812 L 2.644531 -5.714844 C 2.300781 -5.691406 2.082031 -5.636719 1.980469 -5.546875 C 1.878906 -5.453125 1.828125 -5.246094 1.828125 -4.917969 L 1.828125 -2.074219 C 1.828125 -1.609375 1.890625 -1.246094 2.019531 -0.984375 C 2.257812 -0.511719 2.707031 -0.273438 3.367188 -0.273438 C 4.09375 -0.273438 4.582031 -0.515625 4.832031 -1.003906 C 4.96875 -1.273438 5.039062 -1.695312 5.039062 -2.261719 L 5.039062 -4.574219 C 5.039062 -5.058594 4.980469 -5.363281 4.867188 -5.484375 C 4.75 -5.605469 4.53125 -5.683594 4.207031 -5.714844 L 4.207031 -5.882812 L 6.261719 -5.882812 L 6.261719 -5.714844 C 5.917969 -5.679688 5.695312 -5.597656 5.589844 -5.46875 C 5.484375 -5.339844 5.429688 -5.039062 5.429688 -4.574219 L 5.429688 -2.261719 C 5.429688 -1.648438 5.335938 -1.167969 5.148438 -0.824219 C 4.800781 -0.191406 4.140625 0.125 3.167969 0.125 C 2.207031 0.125 1.554688 -0.1875 1.207031 -0.8125 C 1.019531 -1.148438 0.925781 -1.589844 0.925781 -2.140625 L 0.925781 -4.917969 C 0.925781 -5.242188 0.875 -5.449219 0.773438 -5.539062 C 0.675781 -5.632812 0.457031 -5.691406 0.121094 -5.714844 L 0.121094 -5.882812 Z "/>
</g>
</g>
</defs>
<g fill="rgb(100%, 100%, 100%)" fill-opacity="1">
<use xlink:href="#glyph-0-0" x="30" y="26.666992"/>
<use xlink:href="#glyph-0-1" x="36" y="26.666992"/>
<use xlink:href="#glyph-0-2" x="42" y="26.666992"/>
</g>
</svg>
