<?xml version="1.0" encoding="UTF-8"?>
<svg xmlns="http://www.w3.org/2000/svg" xmlns:xlink="http://www.w3.org/1999/xlink" width="854" height="480" viewBox="0 0 854 480">
<defs>
<g>
<g id="glyph-0-0">
<path d="M 1.683594 -1.867188 C 1.683594 -2.105469 1.582031 -2.269531 1.375 -2.355469 C 1.265625 -2.40625 1.125 -2.429688 0.957031 -2.429688 C 0.878906 -2.429688 0.828125 -2.421875 0.808594 -2.40625 C 0.792969 -2.390625 0.78125 -2.355469 0.78125 -2.300781 L 0.78125 -1.285156 C 0.851562 -1.277344 0.898438 -1.277344 0.917969 -1.273438 C 0.941406 -1.273438 0.960938 -1.273438 0.980469 -1.273438 C 1.160156 -1.273438 1.300781 -1.296875 1.402344 -1.347656 C 1.589844 -1.441406 1.683594 -1.613281 1.683594 -1.867188 Z M 0.0625 -0.0703125 C 0.210938 -0.0859375 0.304688 -0.113281 0.339844 -0.160156 C 0.375 -0.203125 0.394531 -0.304688 0.394531 -0.46875 L 0.394531 -2.152344 C 0.394531 -2.289062 0.375 -2.375 0.332031 -2.417969 C 0.292969 -2.460938 0.203125 -2.488281 0.0625 -2.5 L 0.0625 -2.574219 L 1.089844 -2.574219 C 1.417969 -2.574219 1.667969 -2.507812 1.84375 -2.382812 C 2.019531 -2.253906 2.105469 -2.085938 2.105469 -1.875 C 2.105469 -1.613281 2.007812 -1.421875 1.816406 -1.300781 C 1.621094 -1.183594 1.378906 -1.121094 1.089844 -1.121094 C 1.046875 -1.121094 0.992188 -1.125 0.929688 -1.125 C 0.863281 -1.128906 0.8125 -1.128906 0.78125 -1.128906 L 0.78125 -0.421875 C 0.78125 -0.273438 0.804688 -0.183594 0.851562 -0.144531 C 0.894531 -0.105469 0.996094 -0.0820312 1.152344 -0.0703125 L 1.152344 0 L 0.0625 0 Z "/>
</g>
<g id="glyph-0-1">
<path d="M 0.078125 -0.0546875 C 0.195312 -0.0664062 0.277344 -0.0898438 0.320312 -0.125 C 0.359375 -0.160156 0.382812 -0.230469 0.382812 -0.335938 L 0.382812 -2.191406 C 0.382812 -2.273438 0.375 -2.332031 0.359375 -2.363281 C 0.335938 -2.417969 0.285156 -2.445312 0.207031 -2.445312 C 0.1875 -2.445312 0.171875 -2.441406 0.148438 -2.4375 C 0.128906 -2.433594 0.101562 -2.429688 0.0703125 -2.421875 L 0.0703125 -2.484375 C 0.242188 -2.53125 0.445312 -2.589844 0.6875 -2.667969 C 0.695312 -2.667969 0.703125 -2.664062 0.703125 -2.65625 C 0.707031 -2.648438 0.707031 -2.632812 0.707031 -2.605469 L 0.707031 -0.328125 C 0.707031 -0.21875 0.726562 -0.148438 0.761719 -0.113281 C 0.800781 -0.0820312 0.878906 -0.0625 1 -0.0546875 L 1 0 L 0.078125 0 Z "/>
</g>
<g id="glyph-0-2">
<path d="M 1.113281 -1.050781 C 0.96875 -1.003906 0.847656 -0.949219 0.753906 -0.894531 C 0.570312 -0.78125 0.480469 -0.652344 0.480469 -0.507812 C 0.480469 -0.394531 0.519531 -0.308594 0.59375 -0.253906 C 0.644531 -0.21875 0.699219 -0.203125 0.757812 -0.203125 C 0.84375 -0.203125 0.921875 -0.226562 1 -0.273438 C 1.078125 -0.320312 1.113281 -0.378906 1.113281 -0.449219 Z M 0.140625 -0.378906 C 0.140625 -0.5625 0.234375 -0.714844 0.417969 -0.835938 C 0.535156 -0.914062 0.765625 -1.015625 1.113281 -1.148438 L 1.113281 -1.308594 C 1.113281 -1.4375 1.101562 -1.527344 1.078125 -1.578125 C 1.035156 -1.664062 0.945312 -1.707031 0.808594 -1.707031 C 0.746094 -1.707031 0.683594 -1.6875 0.625 -1.65625 C 0.566406 -1.621094 0.539062 -1.574219 0.539062 -1.515625 C 0.539062 -1.5 0.539062 -1.476562 0.546875 -1.4375 C 0.554688 -1.402344 0.554688 -1.378906 0.554688 -1.371094 C 0.554688 -1.300781 0.53125 -1.25 0.484375 -1.222656 C 0.460938 -1.207031 0.429688 -1.195312 0.390625 -1.195312 C 0.335938 -1.195312 0.289062 -1.214844 0.261719 -1.253906 C 0.230469 -1.289062 0.214844 -1.332031 0.214844 -1.375 C 0.214844 -1.464844 0.269531 -1.558594 0.378906 -1.65625 C 0.488281 -1.753906 0.648438 -1.800781 0.859375 -1.800781 C 1.105469 -1.800781 1.273438 -1.722656 1.359375 -1.5625 C 1.40625 -1.472656 1.429688 -1.347656 1.429688 -1.179688 L 1.429688 -0.417969 C 1.429688 -0.34375 1.433594 -0.292969 1.445312 -0.265625 C 1.460938 -0.214844 1.496094 -0.191406 1.546875 -0.191406 C 1.578125 -0.191406 1.601562 -0.195312 1.621094 -0.207031 C 1.640625 -0.214844 1.671875 -0.234375 1.71875 -0.269531 L 1.71875 -0.171875 C 1.679688 -0.121094 1.632812 -0.0820312 1.585938 -0.0507812 C 1.515625 0 1.445312 0.0234375 1.371094 0.0234375 C 1.285156 0.0234375 1.222656 -0.00390625 1.183594 -0.0625 C 1.144531 -0.117188 1.125 -0.183594 1.121094 -0.261719 C 1.023438 -0.175781 0.941406 -0.113281 0.875 -0.0742188 C 0.757812 -0.00390625 0.648438 0.0273438 0.546875 0.0273438 C 0.4375 0.0273438 0.34375 -0.0117188 0.261719 -0.0859375 C 0.183594 -0.164062 0.140625 -0.261719 0.140625 -0.378906 Z "/>
</g>
<g id="glyph-0-3">
<path d="M 0.0703125 -0.0546875 C 0.160156 -0.0664062 0.222656 -0.0859375 0.257812 -0.121094 C 0.292969 -0.15625 0.3125 -0.230469 0.3125 -0.34375 L 0.3125 -1.308594 C 0.3125 -1.390625 0.304688 -1.445312 0.289062 -1.480469 C 0.265625 -1.527344 0.21875 -1.550781 0.140625 -1.550781 C 0.128906 -1.550781 0.121094 -1.550781 0.105469 -1.550781 C 0.09375 -1.550781 0.0820312 -1.546875 0.0625 -1.542969 L 0.0625 -1.609375 C 0.113281 -1.625 0.238281 -1.664062 0.429688 -1.726562 L 0.609375 -1.789062 C 0.617188 -1.789062 0.625 -1.785156 0.625 -1.777344 C 0.628906 -1.769531 0.628906 -1.761719 0.628906 -1.75 L 0.628906 -1.472656 C 0.746094 -1.582031 0.835938 -1.65625 0.902344 -1.695312 C 1 -1.757812 1.101562 -1.789062 1.210938 -1.789062 C 1.296875 -1.789062 1.375 -1.765625 1.445312 -1.714844 C 1.582031 -1.617188 1.652344 -1.445312 1.652344 -1.199219 L 1.652344 -0.3125 C 1.652344 -0.222656 1.667969 -0.15625 1.707031 -0.117188 C 1.742188 -0.0742188 1.804688 -0.0546875 1.890625 -0.0546875 L 1.890625 0 L 1.078125 0 L 1.078125 -0.0546875 C 1.171875 -0.0664062 1.234375 -0.0898438 1.273438 -0.128906 C 1.308594 -0.167969 1.328125 -0.253906 1.328125 -0.382812 L 1.328125 -1.191406 C 1.328125 -1.300781 1.308594 -1.390625 1.265625 -1.464844 C 1.226562 -1.535156 1.152344 -1.570312 1.042969 -1.570312 C 0.96875 -1.570312 0.890625 -1.546875 0.816406 -1.496094 C 0.773438 -1.464844 0.714844 -1.417969 0.648438 -1.351562 L 0.648438 -0.285156 C 0.648438 -0.195312 0.667969 -0.132812 0.707031 -0.101562 C 0.75 -0.0703125 0.8125 -0.0546875 0.898438 -0.0546875 L 0.898438 0 L 0.0703125 0 Z "/>
</g>
<g id="glyph-0-4">
<rect x="0" y="0" width="0" height="0" mask="url(#mask-0)"/>
</g>
<g id="glyph-0-5">
<path d="M 1.15625 -0.140625 C 1.355469 -0.140625 1.523438 -0.179688 1.65625 -0.257812 C 1.789062 -0.335938 1.859375 -0.480469 1.859375 -0.699219 C 1.859375 -0.917969 1.777344 -1.066406 1.621094 -1.148438 C 1.464844 -1.226562 1.265625 -1.265625 1.023438 -1.265625 C 0.960938 -1.265625 0.925781 -1.265625 0.910156 -1.265625 C 0.894531 -1.265625 0.867188 -1.265625 0.835938 -1.269531 L 0.835938 -0.300781 C 0.835938 -0.234375 0.855469 -0.191406 0.894531 -0.171875 C 0.929688 -0.152344 1.019531 -0.140625 1.15625 -0.140625 Z M 0.0664062 -0.0703125 C 0.222656 -0.078125 0.324219 -0.101562 0.371094 -0.144531 C 0.417969 -0.183594 0.441406 -0.277344 0.441406 -0.421875 L 0.441406 -2.152344 C 0.441406 -2.296875 0.417969 -2.386719 0.371094 -2.429688 C 0.324219 -2.46875 0.222656 -2.492188 0.0664062 -2.5 L 0.0664062 -2.574219 L 1.15625 -2.574219 C 1.46875 -2.574219 1.714844 -2.523438 1.898438 -2.421875 C 2.082031 -2.324219 2.171875 -2.152344 2.171875 -1.90625 C 2.171875 -1.722656 2.109375 -1.582031 1.980469 -1.488281 C 1.910156 -1.433594 1.800781 -1.390625 1.65625 -1.355469 C 1.835938 -1.3125 1.988281 -1.238281 2.113281 -1.136719 C 2.242188 -1.039062 2.304688 -0.898438 2.304688 -0.714844 C 2.304688 -0.410156 2.164062 -0.203125 1.882812 -0.0898438 C 1.734375 -0.03125 1.550781 0 1.335938 0 L 0.0664062 0 Z M 1.207031 -1.421875 C 1.335938 -1.425781 1.445312 -1.445312 1.53125 -1.484375 C 1.695312 -1.5625 1.777344 -1.699219 1.777344 -1.894531 C 1.777344 -2.125 1.683594 -2.28125 1.492188 -2.363281 C 1.386719 -2.40625 1.226562 -2.429688 1.015625 -2.429688 C 0.933594 -2.429688 0.882812 -2.421875 0.863281 -2.410156 C 0.84375 -2.394531 0.835938 -2.355469 0.835938 -2.292969 L 0.835938 -1.417969 Z "/>
</g>
<g id="glyph-0-6">
<path d="M 0.738281 -1.578125 C 0.738281 -1.515625 0.714844 -1.464844 0.671875 -1.421875 C 0.628906 -1.382812 0.578125 -1.363281 0.523438 -1.363281 C 0.460938 -1.363281 0.410156 -1.386719 0.371094 -1.429688 C 0.332031 -1.472656 0.3125 -1.519531 0.3125 -1.578125 C 0.3125 -1.636719 0.332031 -1.683594 0.375 -1.726562 C 0.414062 -1.765625 0.464844 -1.789062 0.523438 -1.789062 C 0.578125 -1.789062 0.628906 -1.765625 0.671875 -1.726562 C 0.714844 -1.6875 0.738281 -1.636719 0.738281 -1.578125 Z M 0.515625 0.03125 C 0.464844 0.03125 0.417969 0.0117188 0.375 -0.03125 C 0.332031 -0.0742188 0.3125 -0.121094 0.3125 -0.183594 C 0.3125 -0.238281 0.332031 -0.289062 0.375 -0.332031 C 0.414062 -0.375 0.464844 -0.394531 0.523438 -0.394531 C 0.582031 -0.394531 0.636719 -0.375 0.679688 -0.332031 C 0.722656 -0.292969 0.746094 -0.242188 0.746094 -0.183594 C 0.746094 -0.128906 0.726562 -0.078125 0.683594 -0.0351562 C 0.640625 0.0117188 0.585938 0.03125 0.515625 0.03125 Z "/>
</g>
<g id="glyph-0-7">
<path d="M 1.441406 -2.617188 C 1.582031 -2.617188 1.722656 -2.597656 1.871094 -2.554688 C 2.019531 -2.515625 2.105469 -2.492188 2.121094 -2.492188 C 2.15625 -2.492188 2.191406 -2.503906 2.226562 -2.523438 C 2.257812 -2.542969 2.28125 -2.574219 2.292969 -2.617188 L 2.375 -2.617188 L 2.410156 -1.746094 L 2.324219 -1.746094 C 2.269531 -1.917969 2.203125 -2.058594 2.121094 -2.164062 C 1.960938 -2.363281 1.746094 -2.464844 1.476562 -2.464844 C 1.203125 -2.464844 0.980469 -2.359375 0.808594 -2.140625 C 0.636719 -1.925781 0.550781 -1.628906 0.550781 -1.253906 C 0.550781 -0.90625 0.640625 -0.628906 0.820312 -0.421875 C 1.003906 -0.214844 1.234375 -0.113281 1.511719 -0.113281 C 1.714844 -0.113281 1.898438 -0.160156 2.066406 -0.257812 C 2.164062 -0.3125 2.273438 -0.394531 2.390625 -0.503906 L 2.460938 -0.429688 C 2.375 -0.320312 2.269531 -0.226562 2.140625 -0.144531 C 1.921875 -0.00390625 1.6875 0.0664062 1.433594 0.0664062 C 1.015625 0.0664062 0.683594 -0.0703125 0.4375 -0.335938 C 0.210938 -0.582031 0.0976562 -0.890625 0.0976562 -1.261719 C 0.0976562 -1.640625 0.214844 -1.957031 0.457031 -2.214844 C 0.707031 -2.484375 1.035156 -2.617188 1.441406 -2.617188 Z "/>
</g>
<g id="glyph-0-8">
<path d="M 0.0429688 -0.0703125 C 0.203125 -0.0859375 0.308594 -0.125 0.351562 -0.179688 C 0.398438 -0.234375 0.421875 -0.367188 0.421875 -0.570312 L 0.421875 -2.285156 L 0.367188 -2.347656 C 0.3125 -2.414062 0.261719 -2.457031 0.222656 -2.472656 C 0.183594 -2.488281 0.125 -2.5 0.0429688 -2.5 L 0.0429688 -2.574219 L 0.710938 -2.574219 L 2.207031 -0.699219 L 2.207031 -2 C 2.207031 -2.214844 2.175781 -2.355469 2.113281 -2.417969 C 2.070312 -2.460938 1.980469 -2.488281 1.835938 -2.5 L 1.835938 -2.574219 L 2.75 -2.574219 L 2.75 -2.5 C 2.601562 -2.484375 2.503906 -2.449219 2.453125 -2.394531 C 2.402344 -2.335938 2.378906 -2.207031 2.378906 -2 L 2.378906 0.046875 L 2.3125 0.046875 L 0.59375 -2.085938 L 0.59375 -0.570312 C 0.59375 -0.359375 0.625 -0.21875 0.6875 -0.15625 C 0.726562 -0.113281 0.816406 -0.0859375 0.957031 -0.0703125 L 0.957031 0 L 0.0429688 0 Z "/>
</g>
</g>
<image id="source-87" x="0" y="0" width="0" height="0"/>
<mask id="mask-0">
<use xlink:href="#source-87"/>
</mask>
</defs>
<g fill="rgb(100%, 100%, 100%)" fill-opacity="1">
<use xlink:href="#glyph-0-0" x="30" y="22.916992"/>
<use xlink:href="#glyph-0-1" x="32" y="22.916992"/>
<use xlink:href="#glyph-0-2" x="33" y="22.916992"/>
<use xlink:href="#glyph-0-3" x="35" y="22.916992"/>
<use xlink:href="#glyph-0-4" x="37" y="22.916992"/>
<use xlink:href="#glyph-0-5" x="38" y="22.916992"/>
<use xlink:href="#glyph-0-6" x="41" y="22.916992"/>
<use xlink:href="#glyph-0-4" x="42" y="22.916992"/>
<use xlink:href="#glyph-0-7" x="43" y="22.916992"/>
<use xlink:href="#glyph-0-8" x="46" y="22.916992"/>
<use xlink:href="#glyph-0-8" x="49" y="22.916992"/>
</g>
</svg>
