<?xml version="1.0" encoding="UTF-8"?>
<svg xmlns="http://www.w3.org/2000/svg" xmlns:xlink="http://www.w3.org/1999/xlink" width="854" height="480" viewBox="0 0 854 480">
<defs>
<g>
<g id="glyph-0-0">
<path d="M 1.851562 -3.367188 C 2.03125 -3.367188 2.21875 -3.339844 2.40625 -3.285156 C 2.597656 -3.230469 2.703125 -3.207031 2.726562 -3.207031 C 2.773438 -3.207031 2.820312 -3.21875 2.859375 -3.246094 C 2.902344 -3.269531 2.933594 -3.3125 2.949219 -3.367188 L 3.054688 -3.367188 L 3.101562 -2.242188 L 2.984375 -2.242188 C 2.917969 -2.464844 2.832031 -2.648438 2.726562 -2.78125 C 2.519531 -3.039062 2.242188 -3.167969 1.898438 -3.167969 C 1.546875 -3.167969 1.261719 -3.03125 1.039062 -2.753906 C 0.816406 -2.476562 0.707031 -2.097656 0.707031 -1.609375 C 0.707031 -1.164062 0.824219 -0.808594 1.054688 -0.542969 C 1.289062 -0.277344 1.585938 -0.144531 1.945312 -0.144531 C 2.203125 -0.144531 2.441406 -0.207031 2.660156 -0.328125 C 2.785156 -0.398438 2.921875 -0.503906 3.070312 -0.648438 L 3.164062 -0.554688 C 3.054688 -0.414062 2.914062 -0.292969 2.75 -0.1875 C 2.472656 -0.0078125 2.167969 0.0820312 1.839844 0.0820312 C 1.304688 0.0820312 0.878906 -0.0898438 0.5625 -0.433594 C 0.269531 -0.75 0.125 -1.144531 0.125 -1.621094 C 0.125 -2.109375 0.277344 -2.515625 0.585938 -2.847656 C 0.910156 -3.195312 1.332031 -3.367188 1.851562 -3.367188 Z "/>
</g>
<g id="glyph-0-1">
<path d="M 0.148438 -0.0546875 C 0.746094 -0.675781 1.148438 -1.128906 1.363281 -1.417969 C 1.574219 -1.707031 1.683594 -1.992188 1.683594 -2.265625 C 1.683594 -2.507812 1.617188 -2.691406 1.488281 -2.816406 C 1.355469 -2.941406 1.203125 -3.003906 1.019531 -3.003906 C 0.796875 -3.003906 0.617188 -2.925781 0.476562 -2.761719 C 0.402344 -2.671875 0.328125 -2.535156 0.257812 -2.347656 L 0.152344 -2.371094 C 0.234375 -2.746094 0.375 -3.003906 0.566406 -3.152344 C 0.761719 -3.296875 0.972656 -3.367188 1.195312 -3.367188 C 1.46875 -3.367188 1.691406 -3.28125 1.863281 -3.109375 C 2.03125 -2.9375 2.117188 -2.722656 2.117188 -2.472656 C 2.117188 -2.207031 2.023438 -1.949219 1.839844 -1.703125 C 1.65625 -1.453125 1.257812 -1.015625 0.640625 -0.382812 L 1.761719 -0.382812 C 1.917969 -0.382812 2.027344 -0.398438 2.09375 -0.4375 C 2.15625 -0.476562 2.226562 -0.566406 2.308594 -0.710938 L 2.371094 -0.679688 L 2.101562 0 L 0.148438 0 Z "/>
</g>
</g>
</defs>
<g fill="rgb(100%, 100%, 100%)" fill-opacity="1">
<use xlink:href="#glyph-0-0" x="30" y="23.75"/>
<use xlink:href="#glyph-0-1" x="33" y="23.75"/>
</g>
</svg>
