<?xml version="1.0" encoding="UTF-8"?>
<svg xmlns="http://www.w3.org/2000/svg" xmlns:xlink="http://www.w3.org/1999/xlink" width="854" height="480" viewBox="0 0 854 480">
<defs>
<g>
<g id="glyph-0-0">
<path d="M 4.933594 -8.976562 C 5.417969 -8.976562 5.910156 -8.90625 6.417969 -8.761719 C 6.925781 -8.621094 7.210938 -8.546875 7.273438 -8.546875 C 7.398438 -8.546875 7.515625 -8.582031 7.628906 -8.652344 C 7.742188 -8.722656 7.820312 -8.832031 7.863281 -8.976562 L 8.144531 -8.976562 L 8.269531 -5.984375 L 7.960938 -5.984375 C 7.785156 -6.578125 7.550781 -7.058594 7.265625 -7.421875 C 6.71875 -8.109375 5.984375 -8.449219 5.058594 -8.449219 C 4.125 -8.449219 3.363281 -8.082031 2.769531 -7.34375 C 2.175781 -6.605469 1.882812 -5.589844 1.882812 -4.296875 C 1.882812 -3.109375 2.191406 -2.15625 2.816406 -1.449219 C 3.4375 -0.738281 4.226562 -0.382812 5.183594 -0.382812 C 5.871094 -0.382812 6.507812 -0.550781 7.089844 -0.878906 C 7.425781 -1.066406 7.789062 -1.347656 8.191406 -1.726562 L 8.4375 -1.476562 C 8.140625 -1.105469 7.777344 -0.777344 7.335938 -0.496094 C 6.589844 -0.0195312 5.78125 0.222656 4.910156 0.222656 C 3.476562 0.222656 2.339844 -0.238281 1.496094 -1.152344 C 0.71875 -2 0.332031 -3.054688 0.332031 -4.324219 C 0.332031 -5.621094 0.742188 -6.710938 1.5625 -7.589844 C 2.425781 -8.515625 3.550781 -8.976562 4.933594 -8.976562 Z "/>
</g>
<g id="glyph-0-1">
<path d="M 0.339844 -3.019531 C 0.339844 -3.882812 0.613281 -4.613281 1.160156 -5.210938 C 1.710938 -5.808594 2.417969 -6.105469 3.28125 -6.105469 C 4.140625 -6.105469 4.851562 -5.824219 5.417969 -5.261719 C 5.980469 -4.695312 6.261719 -3.945312 6.261719 -3.007812 C 6.261719 -2.144531 5.988281 -1.394531 5.441406 -0.753906 C 4.894531 -0.117188 4.1875 0.203125 3.320312 0.203125 C 2.488281 0.203125 1.78125 -0.105469 1.203125 -0.714844 C 0.625 -1.328125 0.339844 -2.097656 0.339844 -3.019531 Z M 3.097656 -5.714844 C 2.753906 -5.714844 2.457031 -5.601562 2.207031 -5.378906 C 1.773438 -4.984375 1.554688 -4.300781 1.554688 -3.332031 C 1.554688 -2.558594 1.730469 -1.839844 2.078125 -1.171875 C 2.429688 -0.503906 2.914062 -0.167969 3.535156 -0.167969 C 4.019531 -0.167969 4.394531 -0.394531 4.65625 -0.839844 C 4.921875 -1.285156 5.050781 -1.871094 5.050781 -2.597656 C 5.050781 -3.347656 4.886719 -4.054688 4.550781 -4.71875 C 4.214844 -5.382812 3.734375 -5.714844 3.097656 -5.714844 Z "/>
</g>
<g id="glyph-0-2">
<path d="M 0.0585938 -0.214844 C 0.457031 -0.25 0.722656 -0.320312 0.851562 -0.425781 C 0.984375 -0.53125 1.046875 -0.757812 1.046875 -1.105469 L 1.046875 -4.042969 C 1.046875 -4.472656 1.007812 -4.78125 0.925781 -4.964844 C 0.847656 -5.148438 0.699219 -5.242188 0.488281 -5.242188 C 0.445312 -5.242188 0.386719 -5.234375 0.316406 -5.222656 C 0.246094 -5.214844 0.167969 -5.199219 0.0898438 -5.183594 L 0.0898438 -5.398438 C 0.339844 -5.484375 0.59375 -5.574219 0.851562 -5.664062 C 1.113281 -5.753906 1.292969 -5.820312 1.394531 -5.859375 C 1.609375 -5.941406 1.832031 -6.035156 2.0625 -6.140625 C 2.09375 -6.140625 2.113281 -6.128906 2.117188 -6.105469 C 2.125 -6.085938 2.128906 -6.039062 2.128906 -5.96875 L 2.128906 -4.902344 C 2.40625 -5.289062 2.675781 -5.589844 2.933594 -5.808594 C 3.191406 -6.023438 3.460938 -6.132812 3.738281 -6.132812 C 3.957031 -6.132812 4.136719 -6.066406 4.277344 -5.933594 C 4.417969 -5.800781 4.484375 -5.636719 4.484375 -5.4375 C 4.484375 -5.257812 4.433594 -5.109375 4.324219 -4.988281 C 4.21875 -4.867188 4.085938 -4.804688 3.925781 -4.804688 C 3.761719 -4.804688 3.59375 -4.878906 3.425781 -5.03125 C 3.261719 -5.183594 3.128906 -5.261719 3.035156 -5.261719 C 2.882812 -5.261719 2.695312 -5.136719 2.472656 -4.890625 C 2.253906 -4.648438 2.140625 -4.394531 2.140625 -4.132812 L 2.140625 -1.199219 C 2.140625 -0.824219 2.230469 -0.566406 2.402344 -0.417969 C 2.574219 -0.273438 2.863281 -0.207031 3.269531 -0.214844 L 3.269531 0 L 0.0585938 0 Z "/>
</g>
<g id="glyph-0-3">
<path d="M 3.054688 -6.105469 C 3.664062 -6.105469 4.203125 -5.894531 4.660156 -5.472656 C 5.121094 -5.050781 5.351562 -4.449219 5.351562 -3.671875 L 1.21875 -3.671875 C 1.261719 -2.664062 1.488281 -1.929688 1.902344 -1.472656 C 2.3125 -1.011719 2.800781 -0.78125 3.367188 -0.78125 C 3.820312 -0.78125 4.207031 -0.902344 4.519531 -1.140625 C 4.832031 -1.378906 5.121094 -1.714844 5.382812 -2.15625 L 5.613281 -2.078125 C 5.433594 -1.527344 5.101562 -1.015625 4.613281 -0.546875 C 4.125 -0.078125 3.527344 0.15625 2.820312 0.15625 C 2.003906 0.15625 1.371094 -0.152344 0.925781 -0.769531 C 0.480469 -1.386719 0.261719 -2.09375 0.261719 -2.898438 C 0.261719 -3.769531 0.519531 -4.523438 1.035156 -5.15625 C 1.550781 -5.789062 2.222656 -6.105469 3.054688 -6.105469 Z M 2.675781 -5.632812 C 2.179688 -5.632812 1.804688 -5.414062 1.542969 -4.972656 C 1.402344 -4.738281 1.304688 -4.445312 1.242188 -4.089844 L 3.992188 -4.089844 C 3.945312 -4.523438 3.859375 -4.847656 3.742188 -5.058594 C 3.53125 -5.441406 3.175781 -5.632812 2.675781 -5.632812 Z "/>
</g>
<g id="glyph-0-4">
<path d="M 3.3125 -6.140625 C 3.855469 -6.140625 4.324219 -6 4.714844 -5.71875 C 5.109375 -5.4375 5.304688 -5.132812 5.304688 -4.796875 C 5.304688 -4.65625 5.257812 -4.519531 5.15625 -4.398438 C 5.054688 -4.273438 4.902344 -4.210938 4.695312 -4.210938 C 4.542969 -4.210938 4.410156 -4.265625 4.292969 -4.367188 C 4.179688 -4.472656 4.09375 -4.625 4.042969 -4.824219 L 3.964844 -5.136719 C 3.910156 -5.367188 3.8125 -5.53125 3.671875 -5.625 C 3.527344 -5.714844 3.339844 -5.761719 3.105469 -5.761719 C 2.609375 -5.761719 2.191406 -5.546875 1.851562 -5.113281 C 1.511719 -4.683594 1.339844 -4.109375 1.339844 -3.390625 C 1.339844 -2.734375 1.527344 -2.148438 1.902344 -1.628906 C 2.277344 -1.105469 2.785156 -0.847656 3.425781 -0.847656 C 3.875 -0.847656 4.277344 -0.992188 4.628906 -1.289062 C 4.828125 -1.457031 5.054688 -1.726562 5.304688 -2.097656 L 5.488281 -1.984375 C 5.242188 -1.464844 4.980469 -1.050781 4.707031 -0.75 C 4.183594 -0.167969 3.574219 0.125 2.882812 0.125 C 2.207031 0.125 1.609375 -0.144531 1.085938 -0.675781 C 0.566406 -1.210938 0.304688 -1.9375 0.304688 -2.851562 C 0.304688 -3.75 0.589844 -4.523438 1.160156 -5.167969 C 1.726562 -5.816406 2.445312 -6.140625 3.3125 -6.140625 Z "/>
</g>
<g id="glyph-0-5">
<path d="M 3.390625 -6.003906 L 3.390625 -5.535156 L 2.0625 -5.535156 L 2.050781 -1.785156 C 2.050781 -1.453125 2.078125 -1.203125 2.136719 -1.035156 C 2.238281 -0.734375 2.445312 -0.585938 2.746094 -0.585938 C 2.902344 -0.585938 3.039062 -0.621094 3.152344 -0.695312 C 3.269531 -0.769531 3.402344 -0.886719 3.546875 -1.046875 L 3.71875 -0.90625 L 3.574219 -0.710938 C 3.347656 -0.40625 3.109375 -0.191406 2.859375 -0.0664062 C 2.605469 0.0585938 2.363281 0.125 2.128906 0.125 C 1.617188 0.125 1.269531 -0.105469 1.085938 -0.558594 C 0.988281 -0.808594 0.9375 -1.148438 0.9375 -1.589844 L 0.9375 -5.535156 L 0.226562 -5.535156 C 0.207031 -5.546875 0.191406 -5.558594 0.179688 -5.574219 C 0.167969 -5.585938 0.164062 -5.601562 0.164062 -5.625 C 0.164062 -5.667969 0.171875 -5.703125 0.191406 -5.726562 C 0.210938 -5.75 0.273438 -5.804688 0.378906 -5.890625 C 0.675781 -6.140625 0.894531 -6.339844 1.023438 -6.492188 C 1.15625 -6.648438 1.46875 -7.054688 1.960938 -7.714844 C 2.015625 -7.714844 2.050781 -7.710938 2.058594 -7.703125 C 2.070312 -7.695312 2.078125 -7.660156 2.078125 -7.605469 L 2.078125 -6.003906 Z "/>
</g>
<g id="glyph-0-6">
<path d="M 3.15625 -6.152344 C 3.472656 -6.152344 3.765625 -6.082031 4.03125 -5.945312 C 4.203125 -5.851562 4.371094 -5.726562 4.53125 -5.566406 L 4.53125 -7.636719 C 4.53125 -7.902344 4.5 -8.082031 4.441406 -8.183594 C 4.382812 -8.285156 4.246094 -8.332031 4.023438 -8.332031 C 3.972656 -8.332031 3.925781 -8.332031 3.886719 -8.328125 C 3.847656 -8.324219 3.761719 -8.3125 3.625 -8.300781 L 3.625 -8.515625 L 4.160156 -8.652344 C 4.355469 -8.703125 4.550781 -8.757812 4.746094 -8.816406 C 4.941406 -8.871094 5.113281 -8.925781 5.261719 -8.976562 C 5.332031 -9 5.445312 -9.039062 5.605469 -9.101562 L 5.644531 -9.089844 L 5.632812 -8.40625 C 5.628906 -8.15625 5.621094 -7.902344 5.617188 -7.640625 C 5.613281 -7.378906 5.613281 -7.117188 5.613281 -6.863281 L 5.597656 -1.542969 C 5.597656 -1.261719 5.632812 -1.0625 5.703125 -0.949219 C 5.773438 -0.835938 5.957031 -0.78125 6.257812 -0.78125 C 6.304688 -0.78125 6.351562 -0.78125 6.398438 -0.785156 C 6.445312 -0.785156 6.496094 -0.792969 6.542969 -0.800781 L 6.542969 -0.585938 C 6.515625 -0.578125 6.203125 -0.46875 5.597656 -0.261719 L 4.578125 0.125 L 4.53125 0.0664062 L 4.53125 -0.734375 C 4.289062 -0.46875 4.078125 -0.28125 3.898438 -0.167969 C 3.582031 0.0273438 3.214844 0.125 2.800781 0.125 C 2.0625 0.125 1.464844 -0.160156 1.003906 -0.730469 C 0.546875 -1.300781 0.320312 -1.964844 0.320312 -2.714844 C 0.320312 -3.65625 0.59375 -4.464844 1.140625 -5.140625 C 1.691406 -5.816406 2.363281 -6.152344 3.15625 -6.152344 Z M 3.398438 -0.578125 C 3.738281 -0.578125 4.011719 -0.679688 4.21875 -0.878906 C 4.425781 -1.078125 4.53125 -1.265625 4.53125 -1.445312 L 4.53125 -4.238281 C 4.53125 -4.800781 4.378906 -5.199219 4.078125 -5.433594 C 3.777344 -5.664062 3.484375 -5.78125 3.195312 -5.78125 C 2.648438 -5.78125 2.222656 -5.539062 1.921875 -5.054688 C 1.617188 -4.570312 1.464844 -3.976562 1.464844 -3.269531 C 1.464844 -2.570312 1.625 -1.945312 1.949219 -1.398438 C 2.273438 -0.851562 2.757812 -0.578125 3.398438 -0.578125 Z "/>
</g>
<g id="glyph-0-7">
<rect x="0" y="0" width="0" height="0" mask="url(#mask-0)"/>
</g>
</g>
<image id="source-12" x="0" y="0" width="0" height="0"/>
<mask id="mask-0">
<use xlink:href="#source-12"/>
</mask>
</defs>
<g fill="rgb(100%, 100%, 100%)" fill-opacity="1">
<use xlink:href="#glyph-0-0" x="30" y="30"/>
<use xlink:href="#glyph-0-1" x="39" y="30"/>
<use xlink:href="#glyph-0-2" x="46" y="30"/>
<use xlink:href="#glyph-0-2" x="50" y="30"/>
<use xlink:href="#glyph-0-3" x="54" y="30"/>
<use xlink:href="#glyph-0-4" x="60" y="30"/>
<use xlink:href="#glyph-0-5" x="66" y="30"/>
<use xlink:href="#glyph-0-3" x="70" y="30"/>
<use xlink:href="#glyph-0-6" x="76" y="30"/>
<use xlink:href="#glyph-0-7" x="83" y="30"/>
<use xlink:href="#glyph-0-0" x="86" y="30"/>
<use xlink:href="#glyph-0-1" x="95" y="30"/>
<use xlink:href="#glyph-0-6" x="102" y="30"/>
<use xlink:href="#glyph-0-3" x="109" y="30"/>
</g>
</svg>
