<?xml version="1.0" encoding="UTF-8"?>
<svg xmlns="http://www.w3.org/2000/svg" xmlns:xlink="http://www.w3.org/1999/xlink" width="854" height="480" viewBox="0 0 854 480">
<defs>
<g>
<g id="glyph-0-0">
<path d="M 0.0390625 -0.0585938 C 0.167969 -0.0742188 0.25 -0.0976562 0.28125 -0.132812 C 0.3125 -0.167969 0.332031 -0.257812 0.332031 -0.398438 L 0.332031 -1.84375 C 0.332031 -1.960938 0.3125 -2.039062 0.277344 -2.074219 C 0.242188 -2.113281 0.160156 -2.132812 0.0390625 -2.144531 L 0.0390625 -2.207031 L 1.8125 -2.207031 L 1.824219 -1.726562 L 1.730469 -1.726562 C 1.707031 -1.878906 1.664062 -1.976562 1.601562 -2.015625 C 1.539062 -2.058594 1.414062 -2.078125 1.230469 -2.078125 L 0.773438 -2.078125 C 0.730469 -2.078125 0.703125 -2.070312 0.6875 -2.054688 C 0.675781 -2.039062 0.671875 -2.011719 0.671875 -1.964844 L 0.671875 -1.222656 L 1.152344 -1.222656 C 1.292969 -1.222656 1.386719 -1.242188 1.425781 -1.285156 C 1.464844 -1.328125 1.496094 -1.414062 1.519531 -1.542969 L 1.597656 -1.542969 L 1.597656 -0.769531 L 1.519531 -0.769531 C 1.492188 -0.898438 1.460938 -0.984375 1.421875 -1.027344 C 1.382812 -1.070312 1.292969 -1.089844 1.152344 -1.089844 L 0.671875 -1.089844 L 0.671875 -0.359375 C 0.671875 -0.238281 0.6875 -0.160156 0.726562 -0.125 C 0.765625 -0.0898438 0.847656 -0.0703125 0.972656 -0.0585938 L 0.972656 0 L 0.0390625 0 Z "/>
</g>
<g id="glyph-0-1">
<path d="M 0.0664062 -2.207031 L 1.949219 -2.207031 L 1.964844 -1.640625 L 1.886719 -1.640625 C 1.847656 -1.816406 1.796875 -1.933594 1.738281 -1.984375 C 1.675781 -2.039062 1.550781 -2.066406 1.355469 -2.066406 L 1.171875 -2.066406 L 1.171875 -0.359375 C 1.171875 -0.230469 1.191406 -0.152344 1.230469 -0.121094 C 1.273438 -0.0898438 1.359375 -0.0703125 1.496094 -0.0585938 L 1.496094 0 L 0.523438 0 L 0.523438 -0.0585938 C 0.664062 -0.0703125 0.753906 -0.09375 0.789062 -0.128906 C 0.824219 -0.164062 0.839844 -0.257812 0.839844 -0.398438 L 0.839844 -2.066406 L 0.652344 -2.066406 C 0.46875 -2.066406 0.34375 -2.039062 0.277344 -1.988281 C 0.210938 -1.933594 0.160156 -1.816406 0.125 -1.640625 L 0.046875 -1.640625 Z "/>
</g>
<g id="glyph-0-2">
<path d="M 0.0390625 -0.0585938 C 0.175781 -0.0742188 0.261719 -0.105469 0.300781 -0.152344 C 0.339844 -0.203125 0.359375 -0.3125 0.359375 -0.488281 L 0.359375 -1.84375 C 0.359375 -1.964844 0.34375 -2.042969 0.304688 -2.078125 C 0.265625 -2.113281 0.179688 -2.136719 0.046875 -2.144531 L 0.046875 -2.207031 L 0.703125 -2.207031 L 1.476562 -0.523438 L 2.214844 -2.207031 L 2.878906 -2.207031 L 2.878906 -2.144531 C 2.753906 -2.136719 2.675781 -2.113281 2.636719 -2.074219 C 2.601562 -2.039062 2.585938 -1.960938 2.585938 -1.84375 L 2.585938 -0.359375 C 2.585938 -0.238281 2.601562 -0.160156 2.636719 -0.128906 C 2.671875 -0.09375 2.753906 -0.0703125 2.878906 -0.0585938 L 2.878906 0 L 1.941406 0 L 1.941406 -0.0585938 C 2.078125 -0.0703125 2.160156 -0.09375 2.195312 -0.132812 C 2.226562 -0.171875 2.246094 -0.257812 2.246094 -0.398438 L 2.246094 -1.898438 L 1.390625 0 L 1.347656 0 L 0.507812 -1.820312 L 0.507812 -0.488281 C 0.507812 -0.308594 0.535156 -0.1875 0.585938 -0.132812 C 0.621094 -0.0976562 0.699219 -0.0742188 0.820312 -0.0585938 L 0.820312 0 L 0.0390625 0 Z "/>
</g>
</g>
</defs>
<g fill="rgb(100%, 100%, 100%)" fill-opacity="1">
<use xlink:href="#glyph-0-0" x="30" y="22.5"/>
<use xlink:href="#glyph-0-1" x="32" y="22.5"/>
<use xlink:href="#glyph-0-2" x="34" y="22.5"/>
</g>
</svg>
